<svg width="268" height="123" viewBox="0 0 268 123" fill="none" xmlns="http://www.w3.org/2000/svg">
<path d="M86.7122 82.1639L85.8066 89.1539L70.9555 88.9699H67.8766L68.2388 121.344L67.5144 122.264L60.4511 123L59.7266 122.08L60.0888 88.9699H23.6855L13.9056 89.1539L13 88.0502V81.612L59.3644 13.9197H68.0577L67.8766 81.0602H85.8066L86.7122 82.1639ZM60.0888 81.0602V26.796H59.0022L21.8744 81.0602H60.0888Z" fill="#89C0C0"/>
<path d="M141.539 13C153.855 13 163.333 17.0468 169.974 25.1405C176.614 33.1115 179.935 44.5162 179.935 59.3545C179.935 74.3155 176.494 85.8428 169.611 93.9365C162.85 101.907 153.13 105.893 140.453 105.893C128.137 105.893 118.659 101.969 112.018 94.1204C105.377 86.272 102.057 75.1126 102.057 60.6421C102.057 45.3133 105.438 33.5407 112.199 25.3244C119.081 17.1081 128.861 13 141.539 13ZM140.815 21.8294C130.793 21.8294 123.066 25.0792 117.633 31.5786C112.32 38.078 109.664 47.5206 109.664 59.9064C109.664 72.1695 112.32 81.4894 117.633 87.8662C123.066 94.243 130.914 97.4314 141.177 97.4314C151.199 97.4314 158.866 94.3044 164.178 88.0502C169.491 81.6734 172.147 72.476 172.147 60.4582C172.147 47.8272 169.43 38.262 163.997 31.7625C158.684 25.1405 150.957 21.8294 140.815 21.8294Z" fill="#89C0C0"/>
<path d="M268 82.1639L267.094 89.1539L252.243 88.9699H249.164L249.527 121.344L248.802 122.264L241.739 123L241.014 122.08L241.377 88.9699H204.973L195.193 89.1539L194.288 88.0502V81.612L240.652 13.9197H249.346L249.164 81.0602H267.094L268 82.1639ZM241.377 81.0602V26.796H240.29L203.162 81.0602H241.377Z" fill="#89C0C0"/>
<path d="M78.1997 72.3566L78.283 71.7136L77.8718 71.2124L76.9662 70.1087L76.5162 69.5602H75.8066H59.3807L59.5577 3.92377L59.5618 2.41973H58.0577H49.3644H48.5737L48.1269 3.0721L1.76245 70.7644L1.5 71.1476V71.612V78.0502V78.5868L1.84037 79.0016L2.74593 80.1053L3.207 80.6673L3.93376 80.6536L13.6996 80.4699H48.5723L48.2267 112.064L48.2209 112.593L48.5483 113.008L49.2727 113.928L49.7842 114.578L50.6065 114.492L57.6698 113.756L58.3004 113.69L58.6928 113.192L59.4172 112.273L59.7447 111.857L59.7387 111.328L59.3935 80.4699H60.9462H60.9555L75.788 80.6537L77.1227 80.6703L77.2942 79.3466L78.1997 72.3566ZM101.049 14.3612L101.049 14.3612L101.041 14.3713C93.9793 22.9525 90.5571 35.1152 90.5571 50.6421C90.5571 65.3244 93.9252 76.878 100.873 85.0893C107.856 93.3416 117.792 97.393 130.453 97.393C143.467 97.393 153.647 93.2854 160.754 84.9081C167.946 76.4508 171.435 64.5278 171.435 49.3545C171.435 34.3162 168.072 22.5206 161.13 14.185C154.153 5.68395 144.214 1.5 131.539 1.5C118.508 1.5 108.27 5.74135 101.049 14.3612ZM152.827 22.7012L152.836 22.713L152.846 22.7246C157.966 28.8492 160.647 38.0121 160.647 50.4582C160.647 62.2754 158.033 71.0762 153.03 77.0852C148.065 82.9264 140.861 85.9314 131.177 85.9314C121.249 85.9314 113.865 82.8636 108.78 76.8998C103.781 70.8954 101.164 61.9767 101.164 49.9064C101.164 37.7119 103.782 28.6643 108.789 22.5344C113.884 16.4436 121.151 13.3294 130.815 13.3294C140.601 13.3294 147.856 16.5043 152.827 22.7012ZM259.488 72.3566L259.571 71.7136L259.16 71.2124L258.254 70.1087L257.804 69.5602H257.094H240.669L240.846 3.92377L240.85 2.41973H239.346H230.652H229.862L229.415 3.0721L183.05 70.7644L182.788 71.1476V71.612V78.0502V78.5868L183.128 79.0016L184.034 80.1053L184.495 80.6673L185.222 80.6536L194.987 80.4699H229.86L229.515 112.064L229.509 112.593L229.836 113.008L230.561 113.928L231.072 114.578L231.894 114.492L238.958 113.756L239.588 113.69L239.981 113.192L240.705 112.273L241.033 111.857L241.027 111.328L240.681 80.4699H242.234H242.243L257.076 80.6537L258.411 80.6703L258.582 79.3466L259.488 72.3566ZM14.7182 69.5602L48.5888 20.0565V69.5602H14.7182ZM196.006 69.5602L229.877 20.0565V69.5602H196.006Z" fill="white" stroke="#FFBDBD" stroke-width="3"/>
</svg>
