<svg width="105" height="60" viewBox="0 0 105 60" fill="none" xmlns="http://www.w3.org/2000/svg">
<path d="M98.4492 44.7221L91.6741 58.8771C91.5117 59.2214 91.2469 59.5 90.9393 59.6885C90.6488 59.8689 90.3156 59.9754 89.9653 59.9918C89.9312 60 89.897 60 89.8628 60H14.8404C14.4047 60 13.9946 59.8607 13.6614 59.6312C13.3197 59.3935 13.0633 59.0574 12.9352 58.664L7.09128 44.7221L6.73245 44.7057C4.75031 44.5828 3.06719 43.6894 1.87107 42.3698C0.692041 41.0584 0 39.3126 0 37.4848C0 37.3373 0.00854371 37.1733 0.0170874 37.0012C0.0854371 35.9931 0.247768 35.0751 0.495535 34.2473C1.14486 32.0425 2.3837 30.4688 3.99846 29.477C5.59613 28.4853 7.55264 28.0837 9.6544 28.2066C10.449 28.2558 11.2606 28.3787 12.0808 28.5754C14.7806 22.5102 18.2237 17.4121 22.1966 13.2812C26.4941 8.79779 31.4067 5.44551 36.6269 3.23251C39.079 2.19158 41.5994 1.40474 44.1539 0.863783C46.7256 0.322828 49.3485 0.0359601 51.9885 0.00317496C54.6114 -0.0296102 57.2429 0.191689 59.8487 0.658878C62.4375 1.12607 65.0006 1.84734 67.5039 2.8227C73.0146 4.95373 78.2604 8.29782 82.9168 12.8386C87.2142 17.0269 91.0077 22.2397 94.0407 28.4771C95.7921 28.0017 97.6119 27.8542 99.2865 28.2722C100.859 28.6574 102.285 29.5426 103.379 31.0917C104.763 33.0424 105.259 35.78 104.874 38.329C104.507 40.7797 103.328 43.0747 101.346 44.3861C101.175 44.5008 100.995 44.5828 100.807 44.6402C100.645 44.6893 100.483 44.7139 100.312 44.7221C100.278 44.7303 100.243 44.7303 100.209 44.7303H98.4492V44.7221ZM90.0422 29.8868C87.2313 24.1904 84.504 19.4366 80.591 15.6335C76.3619 11.519 70.8787 7.75272 65.9148 5.83479C63.6678 4.96599 61.3695 4.31848 59.0542 3.89227C56.7217 3.46606 54.3637 3.26936 52.0312 3.30214C49.6988 3.33493 47.3664 3.58901 45.0596 4.08079C42.7698 4.56437 40.5143 5.26925 38.3271 6.20362C33.6793 8.17893 28.5464 11.9042 24.6846 15.8958C21.1134 19.5841 18.7364 24.1331 16.2501 29.5508L16.6602 29.7721L17.4975 30.2393C18.8474 31.0097 20.2059 31.772 21.5302 31.9769C22.8032 32.1736 24.1189 31.8457 25.5115 30.4934C26.3915 29.6409 27.2715 28.9443 28.2199 28.4525C29.1939 27.9525 30.2362 27.6656 31.4067 27.6411C32.4918 27.6247 33.6451 27.846 34.9011 28.3705C36.1228 28.8787 37.4642 29.6573 38.9593 30.772C39.3865 31.0917 39.9077 31.3458 40.4716 31.5261C41.0611 31.7146 41.7019 31.8294 42.3427 31.854C42.9407 31.8785 43.5217 31.8212 44.0429 31.69C44.5128 31.5671 44.9399 31.3868 45.2817 31.1245C45.8883 30.6655 46.5034 30.2229 47.1271 29.8213C47.7594 29.4115 48.4087 29.0344 49.0836 28.7148C49.8099 28.3705 50.5617 28.0919 51.3306 27.9115C52.1081 27.7312 52.9027 27.6411 53.7314 27.682C57.2771 27.846 58.6953 29.3869 60.0452 30.895C60.0709 30.9196 60.0965 30.9442 60.1221 30.9769C60.8569 31.7966 61.5831 32.5834 63.0612 32.5834C65.1458 32.5916 66.4359 31.4359 67.6577 30.354L67.6662 30.3458C69.1187 29.059 70.5027 27.8296 72.5361 27.4853C74.5439 27.1493 77.1156 27.6984 80.8663 29.9852C83.361 31.5015 85.1552 31.8376 86.582 31.6081C87.949 31.3868 89.0255 30.6245 90.0422 29.8868ZM41.736 10.2731C42.112 9.8879 42.6161 9.68299 43.1287 9.6666C43.6413 9.65021 44.1625 9.82233 44.564 10.1748C44.9656 10.5354 45.1792 11.019 45.1963 11.5108C45.2133 12.0025 45.0339 12.5025 44.6665 12.8877L39.1986 18.5268C38.8226 18.912 38.3186 19.1169 37.8059 19.1333C37.2933 19.1497 36.7722 18.9858 36.3706 18.6251C35.969 18.2645 35.7555 17.7809 35.7384 17.2891C35.7213 16.7974 35.8922 16.2974 36.2681 15.9122L41.736 10.2731ZM61.5489 12.8877C61.173 12.5025 60.9936 12.0025 61.0192 11.5108C61.0363 11.019 61.2499 10.5354 61.6515 10.1748C62.053 9.81413 62.5742 9.64201 63.0868 9.6666C63.5994 9.68299 64.1035 9.8879 64.4794 10.2731L69.9474 15.9122C70.3233 16.2974 70.5027 16.7974 70.4771 17.2891C70.46 17.7809 70.2464 18.2645 69.8449 18.6251C69.4433 18.9858 68.9222 19.1579 68.4095 19.1333C67.8969 19.1169 67.3928 18.912 67.0169 18.5268L61.5489 12.8877ZM50.9205 12.8795V12.8222C50.9376 12.314 51.1598 11.855 51.5186 11.5272C51.8774 11.1829 52.3815 10.978 52.9283 10.978H52.9881C53.5178 10.9944 53.9963 11.2075 54.338 11.5435C54.6969 11.896 54.919 12.3714 54.9105 12.8959L54.8421 19.5759C54.825 20.0841 54.5943 20.5431 54.244 20.8709C53.8852 21.2152 53.3811 21.4201 52.8343 21.4201H52.7745C52.2448 21.4037 51.7664 21.1906 51.4246 20.8545C51.0658 20.5021 50.8437 20.0267 50.8522 19.5021L50.9205 12.8795ZM92.4943 33.1981C90.9564 34.321 89.316 35.4521 87.1117 35.78C84.9074 36.1078 82.1991 35.6078 78.6022 33.4194C73.775 30.477 72.2371 31.8212 70.5625 33.3129L70.5198 33.3457C69.6398 34.1325 68.7256 34.944 67.5637 35.5669C66.3761 36.2062 64.9408 36.6406 63.0697 36.6324C61.3524 36.6324 60.1392 36.2472 59.1823 35.6652C58.234 35.0833 57.5676 34.3456 56.8926 33.5998L56.8413 33.5342C56.4483 33.0998 56.0553 32.6654 55.5598 32.3457C55.0557 32.0179 54.4235 31.7802 53.5435 31.7392C53.1248 31.7228 52.7062 31.772 52.2875 31.8703C51.8518 31.9769 51.4161 32.149 50.9718 32.3539C50.4677 32.5916 49.9722 32.8867 49.4681 33.2145C48.9555 33.5506 48.4343 33.9276 47.9132 34.321C47.1528 34.8948 46.2728 35.3046 45.3159 35.5587C44.3248 35.8291 43.2568 35.9439 42.1889 35.9029C41.1294 35.8619 40.0529 35.6734 39.0533 35.3374C38.0793 35.0177 37.1566 34.5587 36.3791 33.9768C35.2599 33.149 34.3116 32.5588 33.4828 32.19C32.6968 31.8376 32.0475 31.6818 31.475 31.69C30.9966 31.6982 30.5352 31.8457 30.0653 32.1162C29.5613 32.4031 29.0572 32.8211 28.5275 33.3375C27.6304 34.2063 26.7589 34.8538 25.9131 35.321C25.0587 35.7882 24.23 36.0586 23.4183 36.1898C21.8036 36.5176 20.2742 36.2799 18.7962 35.7554C17.3608 35.2472 15.9853 34.4686 14.6098 33.6981C12.8754 32.7228 11.047 31.3498 9.38954 31.2515C8.43265 31.1941 7.53556 31.3089 6.76662 31.6449C6.01478 31.9728 5.374 32.5055 4.89555 33.276C4.40856 34.071 3.34244 35.8783 3.24846 37.2389C3.18011 38.2962 3.44496 39.1486 3.98322 39.7552C4.53002 40.3699 6.1173 41.5051 7.20235 41.6281H53.3341H99.4659C100.32 40.7757 101.566 38.706 101.703 37.3209C101.848 35.821 101.557 33.5301 100.805 32.4727C100.113 31.4974 98.3467 31.8621 97.236 31.8376C95.6811 31.813 93.9125 32.4523 92.4943 33.1981ZM94.6882 44.968H10.7498L15.4403 56.9059H89.3398L94.6882 44.968Z" fill="#FFBDBD"/>
</svg>
