<svg width="80" height="80" viewBox="0 0 80 80" fill="none" xmlns="http://www.w3.org/2000/svg">
<path d="M52.2596 65.14L50.1783 60.4467C49.1783 58.1908 48.6689 55.7973 48.6663 53.332C48.6649 52.5961 48.0689 52 47.333 52H23.333C22.5971 52 21.9997 52.5959 21.9997 53.3333V54.2119C21.9971 56.9266 21.3503 59.6425 20.1277 62.0705L18.7944 64.7372C17.3958 67.5345 16.6597 70.6639 16.6664 73.7866V78.6666C16.6664 79.4039 17.2638 79.9998 17.9997 79.9998H52.6664C53.4024 79.9998 53.9997 79.4039 54.0011 78.6666V73.3333C53.9983 70.4947 53.4116 67.7373 52.2596 65.14ZM51.3328 77.3333H19.3328H19.3314V73.7827C19.3261 71.0694 19.9647 68.3533 21.1781 65.928L22.5102 63.2653C23.8488 60.6053 24.5888 57.6413 24.6596 54.6653H46.0436C46.1996 57.0347 46.7677 59.3373 47.7396 61.5267L49.821 66.22C50.821 68.4759 51.3303 70.8694 51.333 73.3333V77.3333H51.3328Z" fill="#89C0C0"/>
<path d="M53.6689 12.4547C53.4168 12.1667 53.0503 12 52.6662 12H13.9995C13.5075 12 13.0554 12.2706 12.8236 12.7041C12.5917 13.1375 12.6168 13.6627 12.8903 14.072L18.049 21.8106L22.0104 53.4986C22.0931 54.1653 22.6611 54.6666 23.3331 54.6666H47.3331C47.9998 54.6666 48.5651 54.1719 48.6543 53.5092L53.9876 13.5092C54.0382 13.128 53.9222 12.7441 53.6689 12.4547ZM46.1636 52H24.5089L20.6542 21.168C20.6289 20.9613 20.5556 20.7653 20.4409 20.5933L16.4903 14.6666H51.1409L46.1636 52Z" fill="#89C0C0"/>
<path d="M45.9995 5.33325H24.6662C20.2542 5.33325 16.6662 8.92122 16.6662 13.3332C16.6662 14.0692 17.2635 14.6665 17.9995 14.6665H52.6662C53.4021 14.6665 53.9995 14.0692 53.9995 13.3332C53.9995 8.92138 50.4115 5.33325 45.9995 5.33325ZM19.5009 12C20.0942 9.70263 22.1849 7.99997 24.6662 7.99997H45.9995C48.4795 7.99997 50.5701 9.70263 51.1635 12H19.5009Z" fill="#89C0C0"/>
<path d="M40.6662 0H29.9995C29.2636 0 28.6663 0.597344 28.6663 1.33328V6.66656C28.6663 7.4025 29.2636 7.99984 29.9995 7.99984H40.6662C41.4022 7.99984 41.9995 7.4025 41.9995 6.66656V1.33328C41.9995 0.597344 41.4036 0 40.6662 0ZM39.333 5.33328H31.333V2.66672H39.333V5.33328Z" fill="#89C0C0"/>
<path d="M63.333 17.3333H52.6662V20H63.333C64.0689 20 64.6662 20.5986 64.6662 21.3333V43.2479C64.6822 43.8786 64.2476 44.44 63.6383 44.58L48.3716 48.0333L48.9595 50.6345L64.2328 47.1798C66.0781 46.7519 67.3808 45.0719 67.3328 43.2131V21.3333C67.333 19.1279 65.5383 17.3333 63.333 17.3333Z" fill="#89C0C0"/>
<path d="M60.6648 22.6667H51.3315V25.3335H59.3315V40.2655L48.3756 42.6988L48.9542 45.3029L60.9542 42.6361C61.5648 42.4988 61.9983 41.9588 61.9983 41.3335V24C61.9983 23.2641 61.4022 22.6667 60.6648 22.6667Z" fill="#89C0C0"/>
<path d="M29.9994 19.9363L27.3356 20.0632L28.6697 48.0601L31.3335 47.9331L29.9994 19.9363Z" fill="#89C0C0"/>
<path d="M40.672 19.9295L39.3322 47.9265L41.996 48.054L43.3358 20.057L40.672 19.9295Z" fill="#89C0C0"/>
<path d="M35.333 60C31.657 60 28.6663 62.9906 28.6663 66.6667C28.6663 70.3428 31.6569 73.3334 35.333 73.3334C39.0077 73.3334 41.9997 70.3428 41.9997 66.6667C41.9997 62.9906 39.0089 60 35.333 60ZM35.333 70.6667C33.1277 70.6667 31.333 68.872 31.333 66.6667C31.333 64.4614 33.1277 62.6667 35.333 62.6667C37.5383 62.6667 39.333 64.4614 39.333 66.6667C39.333 68.872 37.5383 70.6667 35.333 70.6667Z" fill="#89C0C0"/>
</svg>
