<svg width="105" height="60" viewBox="0 0 105 60" fill="none" xmlns="http://www.w3.org/2000/svg">
<path d="M103.227 43.0254C101.369 39.4837 99.3892 35.948 97.3316 32.495C97.7557 32.1098 98.178 31.7218 98.605 31.3409C99.5509 30.498 100.121 29.3352 100.21 28.0662C100.305 26.7257 99.8586 25.3925 98.9544 24.3129C95.6963 20.4191 88.4972 13.4597 76.5893 10.0504C76.7453 8.05128 75.6127 6.06252 73.6588 5.04273C67.3566 1.74358 60.0475 0 52.5198 0C52.5023 0.000470601 52.484 0.000235301 52.4665 0C44.9481 0 37.6431 1.74334 31.342 5.04179C29.3856 6.06252 28.2526 8.05222 28.4093 10.0504C16.5009 13.4594 9.30225 20.4191 6.04501 24.312C5.14039 25.392 4.69409 26.7252 4.78843 28.0657C4.87778 29.3349 5.4479 30.4978 6.39244 31.3395C6.81992 31.7211 7.24241 32.1091 7.66717 32.4948C5.6096 35.9478 3.62959 39.4834 1.77204 43.0249C0.0117775 46.3799 -0.457429 50.2329 0.455811 53.8921C1.16109 56.6023 3.01502 58.6677 5.54202 59.5591C6.38065 59.8548 7.24921 59.9998 8.11551 59.9998C9.88938 59.9998 11.6533 59.3915 13.1273 58.2247C16.8944 55.2427 20.8308 52.3878 24.8416 49.7225C25.6034 50.1819 26.4701 50.4228 27.3509 50.4228C28.0369 50.4226 28.7311 50.2774 29.3901 49.9776C31.9686 48.8044 34.604 47.6891 37.2383 46.6476C38.1971 47.4578 39.4426 47.9074 40.7593 47.8166C40.7602 47.8164 40.7613 47.8164 40.7622 47.8164C48.5473 47.2589 56.4449 47.2594 64.2375 47.8164C64.3529 47.8246 64.4677 47.8286 64.582 47.8286C65.7721 47.8286 66.8888 47.3912 67.7646 46.6495C70.397 47.6907 73.0309 48.8051 75.608 49.9776C76.267 50.2774 76.9609 50.423 77.6472 50.423C78.528 50.423 79.3947 50.1821 80.1565 49.7225C84.1673 52.388 88.104 55.2427 91.871 58.2249C93.3453 59.392 95.109 60 96.8831 60C97.7491 60 98.6181 59.8551 99.4565 59.5593C101.984 58.668 103.837 56.6025 104.547 53.8747C105.456 50.2332 104.987 46.3801 103.227 43.0254ZM11.0641 55.4187C9.75331 56.4564 8.14 56.7477 6.63691 56.2175C5.20071 55.7112 4.14483 54.5281 3.74456 52.9899C3.05311 50.2183 3.41369 47.2787 4.76008 44.7125C6.49336 41.4077 8.33548 38.1086 10.2481 34.8786C14.4406 38.8201 18.4782 42.9504 22.3076 47.2152C18.4603 49.7983 14.6858 52.5518 11.0641 55.4187ZM28.0245 46.7453C27.3827 47.0371 26.647 46.8879 26.195 46.3749C26.1855 46.3643 26.176 46.3537 26.1665 46.3429C26.1658 46.3422 26.1651 46.3413 26.1644 46.3406C21.4286 40.9583 16.3583 35.7723 11.06 30.8874C11.0466 30.874 11.0321 30.8616 11.0183 30.8486C10.2205 30.1133 9.4179 29.3841 8.61012 28.6629C8.35272 28.4335 8.20441 28.1382 8.18128 27.8088C8.15338 27.412 8.30668 26.9925 8.61329 26.6266C11.6025 23.054 18.1981 16.6798 29.1452 13.5001C31.4216 23.455 33.5522 33.5522 35.4848 43.5647C32.9796 44.5655 30.4766 45.6297 28.0245 46.7453ZM66.1526 43.008C65.998 43.7989 65.2743 44.3549 64.4704 44.2951C60.497 44.0111 56.4966 43.8687 52.4971 43.8687C48.4981 43.8687 44.5002 44.0109 40.5307 44.2951C39.7118 44.3483 39.0035 43.8104 38.8475 43.0118C36.7215 31.9877 34.3573 20.854 31.8196 9.91768C31.6733 9.29155 32.0956 8.59906 32.8723 8.19411C38.703 5.14202 45.4774 3.52975 52.4686 3.52975C52.4851 3.52975 52.5017 3.52975 52.5184 3.52975C59.5175 3.52975 66.2982 5.1425 72.1287 8.19505C72.9034 8.5993 73.3257 9.29179 73.1789 9.92027C70.6417 20.854 68.2776 31.9877 66.1526 43.008ZM78.8056 46.3733C78.3518 46.8876 77.6163 47.0378 76.9745 46.745C74.5222 45.6293 72.0194 44.5652 69.5144 43.5647C71.4466 33.5536 73.5774 23.455 75.854 13.5001C86.8007 16.6795 93.3965 23.054 96.3864 26.6273C96.6926 26.9927 96.8456 27.4125 96.8177 27.8088C96.7946 28.1382 96.6463 28.4335 96.3878 28.6638C95.5784 29.3865 94.7742 30.1173 93.9748 30.854C93.9635 30.8646 93.9517 30.8747 93.9408 30.8858C88.6312 35.7815 83.5496 40.9795 78.8056 46.3733ZM101.259 52.972C100.854 54.5279 99.7981 55.7109 98.3621 56.2173C96.8597 56.7472 95.2457 56.4564 93.9349 55.4185C90.3135 52.5516 86.5387 49.7981 82.6917 47.2149C86.5208 42.9504 90.5584 38.8199 94.7511 34.8781C96.6635 38.1083 98.5059 41.4075 100.239 44.7125C101.585 47.2785 101.946 50.2181 101.259 52.972Z" fill="#FFBDBD"/>
</svg>
