<svg width="21" height="30" viewBox="0 0 21 30" fill="none" xmlns="http://www.w3.org/2000/svg">
<path fill-rule="evenodd" clip-rule="evenodd" d="M20 10.274C20 14.7901 17.5287 19.5075 14.9328 23.1885C13.6485 25.0095 12.3625 26.5371 11.3974 27.6092C11.0513 27.9937 10.7472 28.3188 10.5 28.5772C10.2528 28.3188 9.94869 27.9937 9.6026 27.6092C8.63751 26.5371 7.35146 25.0095 6.06722 23.1885C3.47129 19.5075 1 14.7901 1 10.274C1 5.1725 5.23267 1 10.5 1C15.7673 1 20 5.1725 20 10.274ZM21 10.274C21 19.9481 10.5 30 10.5 30C10.5 30 0 19.9481 0 10.274C0 4.59981 4.70101 0 10.5 0C16.299 0 21 4.59981 21 10.274ZM15.8 9.60029C15.8 12.3163 13.4736 14.6003 10.5 14.6003C7.52635 14.6003 5.2 12.3163 5.2 9.60029C5.2 6.88428 7.52635 4.60029 10.5 4.60029C13.4736 4.60029 15.8 6.88428 15.8 9.60029ZM16.8 9.60029C16.8 12.914 13.9794 15.6003 10.5 15.6003C7.02061 15.6003 4.2 12.914 4.2 9.60029C4.2 6.28658 7.02061 3.60029 10.5 3.60029C13.9794 3.60029 16.8 6.28658 16.8 9.60029Z" fill="white"/>
</svg>
