<svg width="253" height="177" viewBox="0 0 253 177" fill="none" xmlns="http://www.w3.org/2000/svg">
<mask id="path-1-outside-1_1118_1113" maskUnits="userSpaceOnUse" x="0" y="0" width="253" height="178" fill="black">
<rect fill="white" width="253" height="178"/>
<path d="M212.829 161.931C212.829 163.683 212.997 165.184 212.829 166.686C212.156 172.359 207.196 174.278 202.656 172.359C200.386 171.441 199.797 169.272 201.058 167.187C202.319 165.101 204.337 163.933 206.523 162.932C207.868 162.265 209.382 161.847 210.811 161.263C209.55 156.842 203.665 154.089 199.713 156.425C197.022 158.01 194.584 160.096 192.23 162.181C188.783 165.268 185.588 168.605 182.141 171.692C180.543 173.11 178.778 174.361 176.844 175.279C173.733 176.78 171.127 175.946 169.697 172.693C168.688 170.273 168.268 167.604 167.511 165.018C167.427 164.684 167.427 164.267 167.343 163.766C164.989 164.016 162.719 164.267 160.449 164.434C153.807 164.934 147.165 165.184 140.607 163.599C139.093 163.182 137.58 162.682 136.235 161.931C131.61 159.428 130.013 155.507 131.442 150.418C132.535 146.581 134.553 143.244 136.991 140.241C138.925 137.821 141.027 135.569 143.129 133.316C143.633 132.816 143.802 132.315 143.717 131.564C143.633 129.395 143.465 127.226 143.633 125.057C143.886 121.22 144.895 117.633 147.585 114.546C145.147 113.545 143.381 111.793 142.12 109.624C140.943 107.538 139.934 105.286 138.841 102.95C138.337 103.033 137.664 103.117 136.907 103.2C129.004 104.034 121.437 102.7 114.122 99.8632C97.0546 93.2727 86.7972 80.8425 83.266 63.0731C80.8278 50.8097 81.6685 38.7132 86.1246 26.9504C88.3947 20.9438 91.8419 15.6881 96.4661 11.1832C96.7183 10.9329 96.9706 10.6826 97.2228 10.4324C97.3069 10.3489 97.3069 10.2655 97.475 10.0152C87.8902 9.09758 78.7258 10.3489 70.234 14.7704C61.49 19.2753 55.6887 26.283 52.3256 35.6265C53.0823 35.4596 53.5867 35.3762 54.1753 35.2928C59.6403 34.2917 64.3486 35.8768 68.4684 39.464C73.429 43.7187 76.5398 49.3081 78.894 55.2312C81.8367 62.4891 83.6864 69.9973 83.4342 77.8392C83.3501 79.9248 83.0978 82.0104 82.4252 84.0126C81.2481 87.5164 78.5577 88.4341 75.5309 86.3485C72.5041 84.1794 69.7296 81.6767 66.7869 79.3408C66.3665 79.0071 66.0302 78.5066 65.5257 78.006C65.5257 79.6745 65.6939 81.2596 65.5257 82.7612C64.8531 87.433 61.9945 90.186 57.6224 91.6042C53.7549 92.8556 49.7192 93.0224 45.7676 92.4384C39.2095 91.4373 32.7356 90.186 26.2616 89.1015C20.2922 88.1004 14.2386 87.1827 8.18505 87.5164C6.92389 87.5998 5.66274 87.8501 4.40158 88.2672C2.38372 88.9346 1.79518 90.1026 2.21557 92.1882C2.29965 92.5219 2.4678 92.939 2.4678 93.2727C2.4678 93.6898 2.38373 94.1904 2.29965 94.6075C2.04742 94.2738 1.62703 93.9401 1.45888 93.6064C0.197718 89.9357 1.54295 87.5164 5.4105 86.7656C9.78252 85.9313 14.1545 86.265 18.4425 86.9324C26.4298 88.1838 34.4171 89.6854 42.4885 91.0202C47.1128 91.771 51.653 92.1047 56.2772 90.9368C63.9282 89.018 65.6939 83.0115 64.0123 76.9215C63.9282 76.8381 64.0123 76.8381 64.0123 76.9215C62.3308 78.4232 60.7333 80.0916 58.8836 81.343C53.5027 85.0137 45.5994 84.9303 40.6389 81.5099C36.7713 78.8403 35.4261 74.6691 37.0235 70.2476C38.8732 65.3255 42.1522 61.5714 46.6083 58.9019C50.8122 56.3991 55.0161 57.4002 58.3791 61.4046C61.49 65.1587 63.0875 69.4968 64.3486 74.0851C64.5168 74.6691 64.769 75.3365 65.1894 75.837C68.1321 79.8414 71.9996 82.8446 76.1194 85.5976C78.7258 87.2661 80.5755 86.5153 81.5844 83.5955C82.7615 80.0082 82.6775 76.421 82.2571 72.7503C81.2481 63.7405 78.5577 55.3146 73.7653 47.5562C71.5793 43.9689 68.8888 40.7988 65.2735 38.5463C61.4059 36.127 57.2861 35.5431 52.9141 36.7944C52.0733 37.0447 51.4848 37.5453 51.0644 38.2961C48.5421 43.1347 48.458 48.2236 49.8033 53.3959C49.8873 53.6461 49.9714 53.8964 49.9714 54.0633C49.9714 54.397 49.9714 54.6472 49.9714 54.9809C49.6351 54.9809 49.2147 55.0644 48.9625 54.9809C45.8516 53.6461 44.0019 50.1423 44.5905 46.8054C45.2631 43.1347 47.4491 40.2983 49.8033 37.6287C50.3077 37.0447 50.8963 36.3773 51.1485 35.6265C55.9409 22.1952 65.4416 13.9362 79.2303 10.3489C85.1157 8.8473 91.0011 8.5136 97.0546 9.09757C98.1477 9.181 99.0725 9.01415 99.9974 8.26333C107.48 2.50706 116.14 0.338024 125.473 1.17227C129.256 1.50596 132.872 2.59048 136.655 3.17445C138 3.42472 139.514 3.17445 140.943 3.0076C151.789 1.92309 162.467 2.25678 172.976 5.34348C183.486 8.43018 192.482 13.7693 198.872 22.7792C202.319 27.7012 204.505 33.0403 204.421 39.1303C204.421 40.7154 204.085 42.3004 203.917 43.7187C207.028 45.8043 210.223 47.8064 213.249 50.1423C218.798 54.4804 223.255 59.7361 225.777 66.3266C229.224 75.1696 227.795 83.512 222.75 91.4373C222.414 91.9379 222.162 92.4384 221.741 92.8556C221.489 93.1058 221.153 93.2727 220.9 93.523C220.732 93.1893 220.48 92.939 220.396 92.6053C219.387 89.9357 218.714 87.1827 217.369 84.68C210.811 72.7503 201.058 64.9918 187.354 62.4891C177.685 60.7372 168.941 63.4068 161.206 69.3299C154.984 74.0851 150.276 80.1751 146.744 87.0159C144.39 91.6042 142.456 96.4428 140.354 101.198C140.186 101.615 140.102 102.199 140.186 102.616C141.111 105.786 142.456 108.79 144.811 111.209C145.651 112.043 146.828 112.711 148.09 113.628C148.09 110.375 147.921 107.538 148.09 104.702C148.426 98.6953 149.855 92.8556 153.05 87.6833C158.095 79.4242 165.662 74.9193 175.078 73.668C189.54 71.7492 202.319 75.7536 213.333 85.1805C221.153 91.8545 223.843 100.447 222.162 110.375C220.9 117.883 218.126 124.807 213.165 130.73C211.147 133.066 208.877 135.068 205.682 135.736C204.085 136.069 203.917 135.819 204.337 134.317C206.859 125.308 204.421 117.299 198.704 110.124C193.743 103.868 187.269 99.8632 179.198 98.8621C172.052 97.9444 165.662 99.9466 159.776 103.951C156.329 106.287 153.386 109.123 150.612 112.627C152.041 112.127 153.134 111.709 154.311 111.376C162.214 108.873 170.286 107.705 178.441 109.374C189.287 111.626 196.434 118.217 200.554 128.227C201.731 130.98 202.74 133.984 203.076 136.904C204.085 145.663 199.797 152.671 191.726 156.175C188.11 157.76 184.327 158.594 180.291 158.01C177.348 157.593 175.246 156.091 174.153 153.338C172.808 149.834 171.463 146.414 169.95 142.994C168.016 138.822 165.241 135.402 160.869 133.483C156.918 131.731 152.882 131.815 148.678 132.232C145.735 132.566 143.549 133.817 141.7 135.986C138.337 139.823 135.058 143.744 133.124 148.5C132.619 149.751 132.199 151.169 132.031 152.504C131.526 156.175 133.208 159.094 136.823 160.846C139.934 162.431 143.297 163.015 146.744 163.266C153.386 163.766 159.944 163.266 166.502 162.515C166.671 162.515 166.923 162.431 167.175 162.348C167.175 161.097 167.091 159.762 167.175 158.51C167.259 157.676 167.427 156.759 167.764 156.008C168.772 153.672 171.127 153.338 172.808 155.257C174.658 157.426 174.322 160.429 171.799 161.931C170.79 162.515 169.613 162.932 168.352 163.433C168.772 166.603 169.193 169.94 171.127 172.859C172.388 174.695 174.238 175.195 176.339 173.944C178.694 172.526 180.964 170.857 182.982 169.105C186.849 165.685 190.548 162.014 194.332 158.427C195.341 157.509 196.518 156.675 197.695 155.924C201.983 153.088 205.262 153.171 209.802 157.509C210.475 158.177 211.063 159.011 211.568 159.929C211.904 160.513 212.24 160.763 212.913 160.596C221.993 158.594 231.242 158.761 240.406 159.595C243.517 159.845 246.628 160.346 249.739 160.68C249.907 160.68 250.159 160.68 250.327 160.763C250.58 160.93 250.748 161.18 251 161.43C250.664 161.597 250.411 161.847 250.075 161.764C248.141 161.514 246.208 161.18 244.274 161.013C240.49 160.68 236.707 160.262 232.923 160.179C226.618 160.012 220.312 160.012 214.09 161.347C213.67 161.764 213.165 161.931 212.829 161.931ZM98.6521 87.0993C98.7362 87.0993 98.9044 87.0159 98.9884 87.0159C99.4929 76.6712 101.174 66.4935 103.697 56.4826C106.471 45.6374 110.003 35.0425 115.636 25.1985C118.494 20.193 121.773 15.6047 126.482 12.1009C126.986 11.6837 127.659 11.6003 128.247 11.2666C128.079 11.934 128.079 12.6014 127.827 13.1019C123.959 21.7781 119.924 30.3708 116.224 39.1303C112.189 48.7241 108.91 58.6516 108.069 69.0796C107.648 73.668 107.901 78.2563 109.666 82.5944C111.348 86.6822 114.29 89.5186 118.074 91.6042C120.176 92.7721 121.857 92.1882 122.95 90.1026C123.371 89.2683 123.875 88.3507 124.043 87.3496C124.716 84.2629 125.221 81.0927 125.809 77.9226C126.986 71.3321 127.911 64.7416 129.34 58.2345C131.442 48.9744 136.151 41.3828 144.642 36.2105C153.975 30.4542 163.98 27.7846 174.994 29.3697C184.747 30.7879 193.155 35.0425 200.638 41.3828C201.31 41.9667 201.983 42.5507 202.74 43.2181C202.824 42.8844 202.908 42.6341 202.992 42.4673C203.833 38.4629 203.328 34.6254 201.983 30.8713C199.124 23.4466 193.996 17.6903 187.354 13.2688C177.601 6.76169 166.502 4.25897 154.9 3.75842C149.014 3.50815 143.129 4.25897 137.244 4.59266C129.34 5.00979 122.446 7.67936 116.14 12.1009C102.099 21.9449 95.4572 35.8768 94.1119 52.6451C93.5234 60.4869 94.2801 68.162 95.8776 75.837C96.7183 79.5911 97.7273 83.3452 98.6521 87.0993ZM139.345 100.948C139.598 100.447 139.682 100.113 139.85 99.6963C141.7 95.6086 143.381 91.4373 145.399 87.433C148.762 80.8425 153.05 75.0028 158.767 70.1642C164.905 64.9084 171.967 61.6549 180.123 61.2378C187.354 60.8206 194.08 62.656 200.386 66.1598C208.709 70.8315 215.015 77.3386 219.051 86.0148C219.891 87.7667 220.564 89.6854 221.321 91.6876C224.348 87.0993 226.197 82.2607 226.365 76.9215C226.534 70.331 224.263 64.5747 220.312 59.4024C214.174 51.3103 206.019 45.8043 196.434 42.3839C189.119 39.7977 181.636 38.7966 173.901 40.1314C165.157 41.633 157.674 45.8043 151.116 51.5605C138.757 62.3223 133.46 75.6702 136.235 91.9379C136.823 94.9412 137.748 98.0279 139.345 100.948ZM205.682 134.901C206.187 134.735 206.859 134.484 207.532 134.234C209.718 133.233 211.4 131.564 212.829 129.729C218.042 123.139 220.816 115.547 221.489 107.205C221.993 100.447 220.396 94.1904 215.519 89.1849C203.749 77.0049 189.287 72.3332 172.64 75.5033C163.392 77.2552 156.581 82.6778 152.546 91.2705C149.435 97.9444 148.762 105.036 149.183 112.293C149.183 112.377 149.267 112.377 149.351 112.377C149.183 112.21 149.014 112.043 148.846 111.876C151.2 109.791 153.555 107.705 155.993 105.619C161.626 100.864 168.016 97.7776 175.499 97.6942C184.579 97.6107 191.978 101.281 198.031 107.789C203.16 113.295 206.271 119.885 206.271 127.477C206.355 129.979 205.935 132.399 205.682 134.901ZM144.811 132.065C146.576 131.815 148.09 131.481 149.603 131.314C154.9 130.73 159.944 131.231 164.4 134.484C167.848 136.987 170.034 140.574 171.715 144.412C173.06 147.498 174.238 150.669 175.499 153.755C176.255 155.674 177.769 156.759 179.787 157.092C185.083 158.093 189.96 156.675 194.416 153.839C199.797 150.335 202.487 145.329 202.319 138.906C202.151 134.651 200.638 130.73 198.788 126.976C194.08 117.215 186.261 111.543 175.331 110.291C166.755 109.29 158.599 110.959 150.612 114.212C149.098 114.796 147.921 115.797 147.081 117.132C144.895 120.636 144.474 124.473 144.558 128.478C144.558 129.646 144.726 130.814 144.811 132.065ZM138.589 102.116C138.421 101.615 138.337 101.448 138.252 101.198C132.787 88.9346 133.208 76.7547 139.093 64.825C142.961 56.9831 149.014 51.1434 156.245 46.3048C167.091 38.9635 178.862 36.6276 191.642 39.7143C194.248 40.3817 196.854 41.2159 199.545 42.0502C199.124 41.7165 198.872 41.3828 198.536 41.2159C195.425 39.2137 192.482 36.9613 189.203 35.2094C177.685 29.3697 165.83 28.3686 153.639 33.0403C147.333 35.4596 141.7 38.88 137.328 44.0523C133.88 48.1401 132.031 53.0622 130.517 58.1511C128.415 65.4924 127.743 73.084 126.482 80.5922C125.893 83.8457 125.221 87.1827 124.043 90.3528C122.866 93.5229 120.26 94.2738 117.317 92.6053C114.29 90.9368 111.768 88.6843 109.918 85.6811C107.312 81.4264 106.724 76.6712 106.808 71.8326C106.976 64.6581 108.657 57.7339 110.843 50.8931C114.206 40.1314 118.831 29.8702 123.623 19.609C124.548 17.6903 125.389 15.7715 126.314 13.8528C125.725 14.0196 125.389 14.3533 124.968 14.687C121.185 18.1908 118.326 22.4455 115.888 26.8669C111.348 35.1259 108.237 43.8855 105.715 52.8953C102.436 64.9084 100.334 77.0884 99.9133 89.602C99.9133 90.4363 100.166 90.8534 100.754 91.3539C110.087 98.5284 120.596 102.199 132.367 102.449C134.469 102.533 136.487 102.283 138.589 102.116ZM133.208 3.59157C133.208 3.50815 133.292 3.3413 133.292 3.25787C130.013 2.84075 126.65 2.34021 123.371 2.17336C115.804 1.83966 108.741 3.59157 102.352 7.84621C94.7005 13.0185 89.6559 20.193 86.545 28.7023C82.5093 39.9646 81.9208 51.5605 84.1908 63.2399C86.0405 72.8337 90.2444 81.2596 97.2228 88.2672C97.391 88.4341 97.6432 88.6009 98.0636 88.9346C97.8954 88.4341 97.8954 88.1004 97.8113 87.8501C95.5413 80.5922 93.8597 73.2508 93.103 65.6592C92.0941 55.6483 92.7667 45.7208 96.2139 36.2105C101.511 21.8615 111.096 11.5169 125.557 5.7606C128.079 4.84294 130.686 4.34239 133.208 3.59157ZM50.3918 83.0115C55.016 82.8446 59.5562 80.759 62.8352 76.0039C63.0875 75.6702 63.3397 75.0862 63.2556 74.6691C62.0785 69.9139 60.397 65.3255 57.0339 61.5714C54.1753 58.4013 50.644 57.6505 47.0287 59.8195C42.7408 62.3223 39.6299 65.9095 37.9484 70.5813C36.435 74.8359 37.9484 78.6734 41.9 81.0093C44.2542 82.4275 46.6924 83.0115 50.3918 83.0115ZM211.231 162.014C208.793 163.182 206.439 164.183 204.253 165.435C203.328 166.019 202.487 166.936 201.899 167.854C201.058 169.189 201.479 170.44 202.908 171.274C206.103 173.026 210.138 171.608 211.4 168.188C212.072 166.352 211.988 164.434 211.231 162.014ZM168.016 162.265C168.184 162.348 168.352 162.431 168.52 162.598C169.529 162.098 170.538 161.764 171.463 161.18C173.229 160.012 173.397 157.843 171.967 156.258C170.79 154.923 169.277 155.173 168.772 156.842C168.352 158.594 168.268 160.429 168.016 162.265ZM48.6262 53.4793C47.7013 49.2247 47.5332 45.1369 48.7943 40.8822C44.9268 45.4706 44.3382 50.7263 48.6262 53.4793Z"/>
</mask>
<path d="M212.829 161.931C212.829 163.683 212.997 165.184 212.829 166.686C212.156 172.359 207.196 174.278 202.656 172.359C200.386 171.441 199.797 169.272 201.058 167.187C202.319 165.101 204.337 163.933 206.523 162.932C207.868 162.265 209.382 161.847 210.811 161.263C209.55 156.842 203.665 154.089 199.713 156.425C197.022 158.01 194.584 160.096 192.23 162.181C188.783 165.268 185.588 168.605 182.141 171.692C180.543 173.11 178.778 174.361 176.844 175.279C173.733 176.78 171.127 175.946 169.697 172.693C168.688 170.273 168.268 167.604 167.511 165.018C167.427 164.684 167.427 164.267 167.343 163.766C164.989 164.016 162.719 164.267 160.449 164.434C153.807 164.934 147.165 165.184 140.607 163.599C139.093 163.182 137.58 162.682 136.235 161.931C131.61 159.428 130.013 155.507 131.442 150.418C132.535 146.581 134.553 143.244 136.991 140.241C138.925 137.821 141.027 135.569 143.129 133.316C143.633 132.816 143.802 132.315 143.717 131.564C143.633 129.395 143.465 127.226 143.633 125.057C143.886 121.22 144.895 117.633 147.585 114.546C145.147 113.545 143.381 111.793 142.12 109.624C140.943 107.538 139.934 105.286 138.841 102.95C138.337 103.033 137.664 103.117 136.907 103.2C129.004 104.034 121.437 102.7 114.122 99.8632C97.0546 93.2727 86.7972 80.8425 83.266 63.0731C80.8278 50.8097 81.6685 38.7132 86.1246 26.9504C88.3947 20.9438 91.8419 15.6881 96.4661 11.1832C96.7183 10.9329 96.9706 10.6826 97.2228 10.4324C97.3069 10.3489 97.3069 10.2655 97.475 10.0152C87.8902 9.09758 78.7258 10.3489 70.234 14.7704C61.49 19.2753 55.6887 26.283 52.3256 35.6265C53.0823 35.4596 53.5867 35.3762 54.1753 35.2928C59.6403 34.2917 64.3486 35.8768 68.4684 39.464C73.429 43.7187 76.5398 49.3081 78.894 55.2312C81.8367 62.4891 83.6864 69.9973 83.4342 77.8392C83.3501 79.9248 83.0978 82.0104 82.4252 84.0126C81.2481 87.5164 78.5577 88.4341 75.5309 86.3485C72.5041 84.1794 69.7296 81.6767 66.7869 79.3408C66.3665 79.0071 66.0302 78.5066 65.5257 78.006C65.5257 79.6745 65.6939 81.2596 65.5257 82.7612C64.8531 87.433 61.9945 90.186 57.6224 91.6042C53.7549 92.8556 49.7192 93.0224 45.7676 92.4384C39.2095 91.4373 32.7356 90.186 26.2616 89.1015C20.2922 88.1004 14.2386 87.1827 8.18505 87.5164C6.92389 87.5998 5.66274 87.8501 4.40158 88.2672C2.38372 88.9346 1.79518 90.1026 2.21557 92.1882C2.29965 92.5219 2.4678 92.939 2.4678 93.2727C2.4678 93.6898 2.38373 94.1904 2.29965 94.6075C2.04742 94.2738 1.62703 93.9401 1.45888 93.6064C0.197718 89.9357 1.54295 87.5164 5.4105 86.7656C9.78252 85.9313 14.1545 86.265 18.4425 86.9324C26.4298 88.1838 34.4171 89.6854 42.4885 91.0202C47.1128 91.771 51.653 92.1047 56.2772 90.9368C63.9282 89.018 65.6939 83.0115 64.0123 76.9215C63.9282 76.8381 64.0123 76.8381 64.0123 76.9215C62.3308 78.4232 60.7333 80.0916 58.8836 81.343C53.5027 85.0137 45.5994 84.9303 40.6389 81.5099C36.7713 78.8403 35.4261 74.6691 37.0235 70.2476C38.8732 65.3255 42.1522 61.5714 46.6083 58.9019C50.8122 56.3991 55.0161 57.4002 58.3791 61.4046C61.49 65.1587 63.0875 69.4968 64.3486 74.0851C64.5168 74.6691 64.769 75.3365 65.1894 75.837C68.1321 79.8414 71.9996 82.8446 76.1194 85.5976C78.7258 87.2661 80.5755 86.5153 81.5844 83.5955C82.7615 80.0082 82.6775 76.421 82.2571 72.7503C81.2481 63.7405 78.5577 55.3146 73.7653 47.5562C71.5793 43.9689 68.8888 40.7988 65.2735 38.5463C61.4059 36.127 57.2861 35.5431 52.9141 36.7944C52.0733 37.0447 51.4848 37.5453 51.0644 38.2961C48.5421 43.1347 48.458 48.2236 49.8033 53.3959C49.8873 53.6461 49.9714 53.8964 49.9714 54.0633C49.9714 54.397 49.9714 54.6472 49.9714 54.9809C49.6351 54.9809 49.2147 55.0644 48.9625 54.9809C45.8516 53.6461 44.0019 50.1423 44.5905 46.8054C45.2631 43.1347 47.4491 40.2983 49.8033 37.6287C50.3077 37.0447 50.8963 36.3773 51.1485 35.6265C55.9409 22.1952 65.4416 13.9362 79.2303 10.3489C85.1157 8.8473 91.0011 8.5136 97.0546 9.09757C98.1477 9.181 99.0725 9.01415 99.9974 8.26333C107.48 2.50706 116.14 0.338024 125.473 1.17227C129.256 1.50596 132.872 2.59048 136.655 3.17445C138 3.42472 139.514 3.17445 140.943 3.0076C151.789 1.92309 162.467 2.25678 172.976 5.34348C183.486 8.43018 192.482 13.7693 198.872 22.7792C202.319 27.7012 204.505 33.0403 204.421 39.1303C204.421 40.7154 204.085 42.3004 203.917 43.7187C207.028 45.8043 210.223 47.8064 213.249 50.1423C218.798 54.4804 223.255 59.7361 225.777 66.3266C229.224 75.1696 227.795 83.512 222.75 91.4373C222.414 91.9379 222.162 92.4384 221.741 92.8556C221.489 93.1058 221.153 93.2727 220.9 93.523C220.732 93.1893 220.48 92.939 220.396 92.6053C219.387 89.9357 218.714 87.1827 217.369 84.68C210.811 72.7503 201.058 64.9918 187.354 62.4891C177.685 60.7372 168.941 63.4068 161.206 69.3299C154.984 74.0851 150.276 80.1751 146.744 87.0159C144.39 91.6042 142.456 96.4428 140.354 101.198C140.186 101.615 140.102 102.199 140.186 102.616C141.111 105.786 142.456 108.79 144.811 111.209C145.651 112.043 146.828 112.711 148.09 113.628C148.09 110.375 147.921 107.538 148.09 104.702C148.426 98.6953 149.855 92.8556 153.05 87.6833C158.095 79.4242 165.662 74.9193 175.078 73.668C189.54 71.7492 202.319 75.7536 213.333 85.1805C221.153 91.8545 223.843 100.447 222.162 110.375C220.9 117.883 218.126 124.807 213.165 130.73C211.147 133.066 208.877 135.068 205.682 135.736C204.085 136.069 203.917 135.819 204.337 134.317C206.859 125.308 204.421 117.299 198.704 110.124C193.743 103.868 187.269 99.8632 179.198 98.8621C172.052 97.9444 165.662 99.9466 159.776 103.951C156.329 106.287 153.386 109.123 150.612 112.627C152.041 112.127 153.134 111.709 154.311 111.376C162.214 108.873 170.286 107.705 178.441 109.374C189.287 111.626 196.434 118.217 200.554 128.227C201.731 130.98 202.74 133.984 203.076 136.904C204.085 145.663 199.797 152.671 191.726 156.175C188.11 157.76 184.327 158.594 180.291 158.01C177.348 157.593 175.246 156.091 174.153 153.338C172.808 149.834 171.463 146.414 169.95 142.994C168.016 138.822 165.241 135.402 160.869 133.483C156.918 131.731 152.882 131.815 148.678 132.232C145.735 132.566 143.549 133.817 141.7 135.986C138.337 139.823 135.058 143.744 133.124 148.5C132.619 149.751 132.199 151.169 132.031 152.504C131.526 156.175 133.208 159.094 136.823 160.846C139.934 162.431 143.297 163.015 146.744 163.266C153.386 163.766 159.944 163.266 166.502 162.515C166.671 162.515 166.923 162.431 167.175 162.348C167.175 161.097 167.091 159.762 167.175 158.51C167.259 157.676 167.427 156.759 167.764 156.008C168.772 153.672 171.127 153.338 172.808 155.257C174.658 157.426 174.322 160.429 171.799 161.931C170.79 162.515 169.613 162.932 168.352 163.433C168.772 166.603 169.193 169.94 171.127 172.859C172.388 174.695 174.238 175.195 176.339 173.944C178.694 172.526 180.964 170.857 182.982 169.105C186.849 165.685 190.548 162.014 194.332 158.427C195.341 157.509 196.518 156.675 197.695 155.924C201.983 153.088 205.262 153.171 209.802 157.509C210.475 158.177 211.063 159.011 211.568 159.929C211.904 160.513 212.24 160.763 212.913 160.596C221.993 158.594 231.242 158.761 240.406 159.595C243.517 159.845 246.628 160.346 249.739 160.68C249.907 160.68 250.159 160.68 250.327 160.763C250.58 160.93 250.748 161.18 251 161.43C250.664 161.597 250.411 161.847 250.075 161.764C248.141 161.514 246.208 161.18 244.274 161.013C240.49 160.68 236.707 160.262 232.923 160.179C226.618 160.012 220.312 160.012 214.09 161.347C213.67 161.764 213.165 161.931 212.829 161.931ZM98.6521 87.0993C98.7362 87.0993 98.9044 87.0159 98.9884 87.0159C99.4929 76.6712 101.174 66.4935 103.697 56.4826C106.471 45.6374 110.003 35.0425 115.636 25.1985C118.494 20.193 121.773 15.6047 126.482 12.1009C126.986 11.6837 127.659 11.6003 128.247 11.2666C128.079 11.934 128.079 12.6014 127.827 13.1019C123.959 21.7781 119.924 30.3708 116.224 39.1303C112.189 48.7241 108.91 58.6516 108.069 69.0796C107.648 73.668 107.901 78.2563 109.666 82.5944C111.348 86.6822 114.29 89.5186 118.074 91.6042C120.176 92.7721 121.857 92.1882 122.95 90.1026C123.371 89.2683 123.875 88.3507 124.043 87.3496C124.716 84.2629 125.221 81.0927 125.809 77.9226C126.986 71.3321 127.911 64.7416 129.34 58.2345C131.442 48.9744 136.151 41.3828 144.642 36.2105C153.975 30.4542 163.98 27.7846 174.994 29.3697C184.747 30.7879 193.155 35.0425 200.638 41.3828C201.31 41.9667 201.983 42.5507 202.74 43.2181C202.824 42.8844 202.908 42.6341 202.992 42.4673C203.833 38.4629 203.328 34.6254 201.983 30.8713C199.124 23.4466 193.996 17.6903 187.354 13.2688C177.601 6.76169 166.502 4.25897 154.9 3.75842C149.014 3.50815 143.129 4.25897 137.244 4.59266C129.34 5.00979 122.446 7.67936 116.14 12.1009C102.099 21.9449 95.4572 35.8768 94.1119 52.6451C93.5234 60.4869 94.2801 68.162 95.8776 75.837C96.7183 79.5911 97.7273 83.3452 98.6521 87.0993ZM139.345 100.948C139.598 100.447 139.682 100.113 139.85 99.6963C141.7 95.6086 143.381 91.4373 145.399 87.433C148.762 80.8425 153.05 75.0028 158.767 70.1642C164.905 64.9084 171.967 61.6549 180.123 61.2378C187.354 60.8206 194.08 62.656 200.386 66.1598C208.709 70.8315 215.015 77.3386 219.051 86.0148C219.891 87.7667 220.564 89.6854 221.321 91.6876C224.348 87.0993 226.197 82.2607 226.365 76.9215C226.534 70.331 224.263 64.5747 220.312 59.4024C214.174 51.3103 206.019 45.8043 196.434 42.3839C189.119 39.7977 181.636 38.7966 173.901 40.1314C165.157 41.633 157.674 45.8043 151.116 51.5605C138.757 62.3223 133.46 75.6702 136.235 91.9379C136.823 94.9412 137.748 98.0279 139.345 100.948ZM205.682 134.901C206.187 134.735 206.859 134.484 207.532 134.234C209.718 133.233 211.4 131.564 212.829 129.729C218.042 123.139 220.816 115.547 221.489 107.205C221.993 100.447 220.396 94.1904 215.519 89.1849C203.749 77.0049 189.287 72.3332 172.64 75.5033C163.392 77.2552 156.581 82.6778 152.546 91.2705C149.435 97.9444 148.762 105.036 149.183 112.293C149.183 112.377 149.267 112.377 149.351 112.377C149.183 112.21 149.014 112.043 148.846 111.876C151.2 109.791 153.555 107.705 155.993 105.619C161.626 100.864 168.016 97.7776 175.499 97.6942C184.579 97.6107 191.978 101.281 198.031 107.789C203.16 113.295 206.271 119.885 206.271 127.477C206.355 129.979 205.935 132.399 205.682 134.901ZM144.811 132.065C146.576 131.815 148.09 131.481 149.603 131.314C154.9 130.73 159.944 131.231 164.4 134.484C167.848 136.987 170.034 140.574 171.715 144.412C173.06 147.498 174.238 150.669 175.499 153.755C176.255 155.674 177.769 156.759 179.787 157.092C185.083 158.093 189.96 156.675 194.416 153.839C199.797 150.335 202.487 145.329 202.319 138.906C202.151 134.651 200.638 130.73 198.788 126.976C194.08 117.215 186.261 111.543 175.331 110.291C166.755 109.29 158.599 110.959 150.612 114.212C149.098 114.796 147.921 115.797 147.081 117.132C144.895 120.636 144.474 124.473 144.558 128.478C144.558 129.646 144.726 130.814 144.811 132.065ZM138.589 102.116C138.421 101.615 138.337 101.448 138.252 101.198C132.787 88.9346 133.208 76.7547 139.093 64.825C142.961 56.9831 149.014 51.1434 156.245 46.3048C167.091 38.9635 178.862 36.6276 191.642 39.7143C194.248 40.3817 196.854 41.2159 199.545 42.0502C199.124 41.7165 198.872 41.3828 198.536 41.2159C195.425 39.2137 192.482 36.9613 189.203 35.2094C177.685 29.3697 165.83 28.3686 153.639 33.0403C147.333 35.4596 141.7 38.88 137.328 44.0523C133.88 48.1401 132.031 53.0622 130.517 58.1511C128.415 65.4924 127.743 73.084 126.482 80.5922C125.893 83.8457 125.221 87.1827 124.043 90.3528C122.866 93.5229 120.26 94.2738 117.317 92.6053C114.29 90.9368 111.768 88.6843 109.918 85.6811C107.312 81.4264 106.724 76.6712 106.808 71.8326C106.976 64.6581 108.657 57.7339 110.843 50.8931C114.206 40.1314 118.831 29.8702 123.623 19.609C124.548 17.6903 125.389 15.7715 126.314 13.8528C125.725 14.0196 125.389 14.3533 124.968 14.687C121.185 18.1908 118.326 22.4455 115.888 26.8669C111.348 35.1259 108.237 43.8855 105.715 52.8953C102.436 64.9084 100.334 77.0884 99.9133 89.602C99.9133 90.4363 100.166 90.8534 100.754 91.3539C110.087 98.5284 120.596 102.199 132.367 102.449C134.469 102.533 136.487 102.283 138.589 102.116ZM133.208 3.59157C133.208 3.50815 133.292 3.3413 133.292 3.25787C130.013 2.84075 126.65 2.34021 123.371 2.17336C115.804 1.83966 108.741 3.59157 102.352 7.84621C94.7005 13.0185 89.6559 20.193 86.545 28.7023C82.5093 39.9646 81.9208 51.5605 84.1908 63.2399C86.0405 72.8337 90.2444 81.2596 97.2228 88.2672C97.391 88.4341 97.6432 88.6009 98.0636 88.9346C97.8954 88.4341 97.8954 88.1004 97.8113 87.8501C95.5413 80.5922 93.8597 73.2508 93.103 65.6592C92.0941 55.6483 92.7667 45.7208 96.2139 36.2105C101.511 21.8615 111.096 11.5169 125.557 5.7606C128.079 4.84294 130.686 4.34239 133.208 3.59157ZM50.3918 83.0115C55.016 82.8446 59.5562 80.759 62.8352 76.0039C63.0875 75.6702 63.3397 75.0862 63.2556 74.6691C62.0785 69.9139 60.397 65.3255 57.0339 61.5714C54.1753 58.4013 50.644 57.6505 47.0287 59.8195C42.7408 62.3223 39.6299 65.9095 37.9484 70.5813C36.435 74.8359 37.9484 78.6734 41.9 81.0093C44.2542 82.4275 46.6924 83.0115 50.3918 83.0115ZM211.231 162.014C208.793 163.182 206.439 164.183 204.253 165.435C203.328 166.019 202.487 166.936 201.899 167.854C201.058 169.189 201.479 170.44 202.908 171.274C206.103 173.026 210.138 171.608 211.4 168.188C212.072 166.352 211.988 164.434 211.231 162.014ZM168.016 162.265C168.184 162.348 168.352 162.431 168.52 162.598C169.529 162.098 170.538 161.764 171.463 161.18C173.229 160.012 173.397 157.843 171.967 156.258C170.79 154.923 169.277 155.173 168.772 156.842C168.352 158.594 168.268 160.429 168.016 162.265ZM48.6262 53.4793C47.7013 49.2247 47.5332 45.1369 48.7943 40.8822C44.9268 45.4706 44.3382 50.7263 48.6262 53.4793Z" fill="white"/>
<path d="M212.829 161.931C212.829 163.683 212.997 165.184 212.829 166.686C212.156 172.359 207.196 174.278 202.656 172.359C200.386 171.441 199.797 169.272 201.058 167.187C202.319 165.101 204.337 163.933 206.523 162.932C207.868 162.265 209.382 161.847 210.811 161.263C209.55 156.842 203.665 154.089 199.713 156.425C197.022 158.01 194.584 160.096 192.23 162.181C188.783 165.268 185.588 168.605 182.141 171.692C180.543 173.11 178.778 174.361 176.844 175.279C173.733 176.78 171.127 175.946 169.697 172.693C168.688 170.273 168.268 167.604 167.511 165.018C167.427 164.684 167.427 164.267 167.343 163.766C164.989 164.016 162.719 164.267 160.449 164.434C153.807 164.934 147.165 165.184 140.607 163.599C139.093 163.182 137.58 162.682 136.235 161.931C131.61 159.428 130.013 155.507 131.442 150.418C132.535 146.581 134.553 143.244 136.991 140.241C138.925 137.821 141.027 135.569 143.129 133.316C143.633 132.816 143.802 132.315 143.717 131.564C143.633 129.395 143.465 127.226 143.633 125.057C143.886 121.22 144.895 117.633 147.585 114.546C145.147 113.545 143.381 111.793 142.12 109.624C140.943 107.538 139.934 105.286 138.841 102.95C138.337 103.033 137.664 103.117 136.907 103.2C129.004 104.034 121.437 102.7 114.122 99.8632C97.0546 93.2727 86.7972 80.8425 83.266 63.0731C80.8278 50.8097 81.6685 38.7132 86.1246 26.9504C88.3947 20.9438 91.8419 15.6881 96.4661 11.1832C96.7183 10.9329 96.9706 10.6826 97.2228 10.4324C97.3069 10.3489 97.3069 10.2655 97.475 10.0152C87.8902 9.09758 78.7258 10.3489 70.234 14.7704C61.49 19.2753 55.6887 26.283 52.3256 35.6265C53.0823 35.4596 53.5867 35.3762 54.1753 35.2928C59.6403 34.2917 64.3486 35.8768 68.4684 39.464C73.429 43.7187 76.5398 49.3081 78.894 55.2312C81.8367 62.4891 83.6864 69.9973 83.4342 77.8392C83.3501 79.9248 83.0978 82.0104 82.4252 84.0126C81.2481 87.5164 78.5577 88.4341 75.5309 86.3485C72.5041 84.1794 69.7296 81.6767 66.7869 79.3408C66.3665 79.0071 66.0302 78.5066 65.5257 78.006C65.5257 79.6745 65.6939 81.2596 65.5257 82.7612C64.8531 87.433 61.9945 90.186 57.6224 91.6042C53.7549 92.8556 49.7192 93.0224 45.7676 92.4384C39.2095 91.4373 32.7356 90.186 26.2616 89.1015C20.2922 88.1004 14.2386 87.1827 8.18505 87.5164C6.92389 87.5998 5.66274 87.8501 4.40158 88.2672C2.38372 88.9346 1.79518 90.1026 2.21557 92.1882C2.29965 92.5219 2.4678 92.939 2.4678 93.2727C2.4678 93.6898 2.38373 94.1904 2.29965 94.6075C2.04742 94.2738 1.62703 93.9401 1.45888 93.6064C0.197718 89.9357 1.54295 87.5164 5.4105 86.7656C9.78252 85.9313 14.1545 86.265 18.4425 86.9324C26.4298 88.1838 34.4171 89.6854 42.4885 91.0202C47.1128 91.771 51.653 92.1047 56.2772 90.9368C63.9282 89.018 65.6939 83.0115 64.0123 76.9215C63.9282 76.8381 64.0123 76.8381 64.0123 76.9215C62.3308 78.4232 60.7333 80.0916 58.8836 81.343C53.5027 85.0137 45.5994 84.9303 40.6389 81.5099C36.7713 78.8403 35.4261 74.6691 37.0235 70.2476C38.8732 65.3255 42.1522 61.5714 46.6083 58.9019C50.8122 56.3991 55.0161 57.4002 58.3791 61.4046C61.49 65.1587 63.0875 69.4968 64.3486 74.0851C64.5168 74.6691 64.769 75.3365 65.1894 75.837C68.1321 79.8414 71.9996 82.8446 76.1194 85.5976C78.7258 87.2661 80.5755 86.5153 81.5844 83.5955C82.7615 80.0082 82.6775 76.421 82.2571 72.7503C81.2481 63.7405 78.5577 55.3146 73.7653 47.5562C71.5793 43.9689 68.8888 40.7988 65.2735 38.5463C61.4059 36.127 57.2861 35.5431 52.9141 36.7944C52.0733 37.0447 51.4848 37.5453 51.0644 38.2961C48.5421 43.1347 48.458 48.2236 49.8033 53.3959C49.8873 53.6461 49.9714 53.8964 49.9714 54.0633C49.9714 54.397 49.9714 54.6472 49.9714 54.9809C49.6351 54.9809 49.2147 55.0644 48.9625 54.9809C45.8516 53.6461 44.0019 50.1423 44.5905 46.8054C45.2631 43.1347 47.4491 40.2983 49.8033 37.6287C50.3077 37.0447 50.8963 36.3773 51.1485 35.6265C55.9409 22.1952 65.4416 13.9362 79.2303 10.3489C85.1157 8.8473 91.0011 8.5136 97.0546 9.09757C98.1477 9.181 99.0725 9.01415 99.9974 8.26333C107.48 2.50706 116.14 0.338024 125.473 1.17227C129.256 1.50596 132.872 2.59048 136.655 3.17445C138 3.42472 139.514 3.17445 140.943 3.0076C151.789 1.92309 162.467 2.25678 172.976 5.34348C183.486 8.43018 192.482 13.7693 198.872 22.7792C202.319 27.7012 204.505 33.0403 204.421 39.1303C204.421 40.7154 204.085 42.3004 203.917 43.7187C207.028 45.8043 210.223 47.8064 213.249 50.1423C218.798 54.4804 223.255 59.7361 225.777 66.3266C229.224 75.1696 227.795 83.512 222.75 91.4373C222.414 91.9379 222.162 92.4384 221.741 92.8556C221.489 93.1058 221.153 93.2727 220.9 93.523C220.732 93.1893 220.48 92.939 220.396 92.6053C219.387 89.9357 218.714 87.1827 217.369 84.68C210.811 72.7503 201.058 64.9918 187.354 62.4891C177.685 60.7372 168.941 63.4068 161.206 69.3299C154.984 74.0851 150.276 80.1751 146.744 87.0159C144.39 91.6042 142.456 96.4428 140.354 101.198C140.186 101.615 140.102 102.199 140.186 102.616C141.111 105.786 142.456 108.79 144.811 111.209C145.651 112.043 146.828 112.711 148.09 113.628C148.09 110.375 147.921 107.538 148.09 104.702C148.426 98.6953 149.855 92.8556 153.05 87.6833C158.095 79.4242 165.662 74.9193 175.078 73.668C189.54 71.7492 202.319 75.7536 213.333 85.1805C221.153 91.8545 223.843 100.447 222.162 110.375C220.9 117.883 218.126 124.807 213.165 130.73C211.147 133.066 208.877 135.068 205.682 135.736C204.085 136.069 203.917 135.819 204.337 134.317C206.859 125.308 204.421 117.299 198.704 110.124C193.743 103.868 187.269 99.8632 179.198 98.8621C172.052 97.9444 165.662 99.9466 159.776 103.951C156.329 106.287 153.386 109.123 150.612 112.627C152.041 112.127 153.134 111.709 154.311 111.376C162.214 108.873 170.286 107.705 178.441 109.374C189.287 111.626 196.434 118.217 200.554 128.227C201.731 130.98 202.74 133.984 203.076 136.904C204.085 145.663 199.797 152.671 191.726 156.175C188.11 157.76 184.327 158.594 180.291 158.01C177.348 157.593 175.246 156.091 174.153 153.338C172.808 149.834 171.463 146.414 169.95 142.994C168.016 138.822 165.241 135.402 160.869 133.483C156.918 131.731 152.882 131.815 148.678 132.232C145.735 132.566 143.549 133.817 141.7 135.986C138.337 139.823 135.058 143.744 133.124 148.5C132.619 149.751 132.199 151.169 132.031 152.504C131.526 156.175 133.208 159.094 136.823 160.846C139.934 162.431 143.297 163.015 146.744 163.266C153.386 163.766 159.944 163.266 166.502 162.515C166.671 162.515 166.923 162.431 167.175 162.348C167.175 161.097 167.091 159.762 167.175 158.51C167.259 157.676 167.427 156.759 167.764 156.008C168.772 153.672 171.127 153.338 172.808 155.257C174.658 157.426 174.322 160.429 171.799 161.931C170.79 162.515 169.613 162.932 168.352 163.433C168.772 166.603 169.193 169.94 171.127 172.859C172.388 174.695 174.238 175.195 176.339 173.944C178.694 172.526 180.964 170.857 182.982 169.105C186.849 165.685 190.548 162.014 194.332 158.427C195.341 157.509 196.518 156.675 197.695 155.924C201.983 153.088 205.262 153.171 209.802 157.509C210.475 158.177 211.063 159.011 211.568 159.929C211.904 160.513 212.24 160.763 212.913 160.596C221.993 158.594 231.242 158.761 240.406 159.595C243.517 159.845 246.628 160.346 249.739 160.68C249.907 160.68 250.159 160.68 250.327 160.763C250.58 160.93 250.748 161.18 251 161.43C250.664 161.597 250.411 161.847 250.075 161.764C248.141 161.514 246.208 161.18 244.274 161.013C240.49 160.68 236.707 160.262 232.923 160.179C226.618 160.012 220.312 160.012 214.09 161.347C213.67 161.764 213.165 161.931 212.829 161.931ZM98.6521 87.0993C98.7362 87.0993 98.9044 87.0159 98.9884 87.0159C99.4929 76.6712 101.174 66.4935 103.697 56.4826C106.471 45.6374 110.003 35.0425 115.636 25.1985C118.494 20.193 121.773 15.6047 126.482 12.1009C126.986 11.6837 127.659 11.6003 128.247 11.2666C128.079 11.934 128.079 12.6014 127.827 13.1019C123.959 21.7781 119.924 30.3708 116.224 39.1303C112.189 48.7241 108.91 58.6516 108.069 69.0796C107.648 73.668 107.901 78.2563 109.666 82.5944C111.348 86.6822 114.29 89.5186 118.074 91.6042C120.176 92.7721 121.857 92.1882 122.95 90.1026C123.371 89.2683 123.875 88.3507 124.043 87.3496C124.716 84.2629 125.221 81.0927 125.809 77.9226C126.986 71.3321 127.911 64.7416 129.34 58.2345C131.442 48.9744 136.151 41.3828 144.642 36.2105C153.975 30.4542 163.98 27.7846 174.994 29.3697C184.747 30.7879 193.155 35.0425 200.638 41.3828C201.31 41.9667 201.983 42.5507 202.74 43.2181C202.824 42.8844 202.908 42.6341 202.992 42.4673C203.833 38.4629 203.328 34.6254 201.983 30.8713C199.124 23.4466 193.996 17.6903 187.354 13.2688C177.601 6.76169 166.502 4.25897 154.9 3.75842C149.014 3.50815 143.129 4.25897 137.244 4.59266C129.34 5.00979 122.446 7.67936 116.14 12.1009C102.099 21.9449 95.4572 35.8768 94.1119 52.6451C93.5234 60.4869 94.2801 68.162 95.8776 75.837C96.7183 79.5911 97.7273 83.3452 98.6521 87.0993ZM139.345 100.948C139.598 100.447 139.682 100.113 139.85 99.6963C141.7 95.6086 143.381 91.4373 145.399 87.433C148.762 80.8425 153.05 75.0028 158.767 70.1642C164.905 64.9084 171.967 61.6549 180.123 61.2378C187.354 60.8206 194.08 62.656 200.386 66.1598C208.709 70.8315 215.015 77.3386 219.051 86.0148C219.891 87.7667 220.564 89.6854 221.321 91.6876C224.348 87.0993 226.197 82.2607 226.365 76.9215C226.534 70.331 224.263 64.5747 220.312 59.4024C214.174 51.3103 206.019 45.8043 196.434 42.3839C189.119 39.7977 181.636 38.7966 173.901 40.1314C165.157 41.633 157.674 45.8043 151.116 51.5605C138.757 62.3223 133.46 75.6702 136.235 91.9379C136.823 94.9412 137.748 98.0279 139.345 100.948ZM205.682 134.901C206.187 134.735 206.859 134.484 207.532 134.234C209.718 133.233 211.4 131.564 212.829 129.729C218.042 123.139 220.816 115.547 221.489 107.205C221.993 100.447 220.396 94.1904 215.519 89.1849C203.749 77.0049 189.287 72.3332 172.64 75.5033C163.392 77.2552 156.581 82.6778 152.546 91.2705C149.435 97.9444 148.762 105.036 149.183 112.293C149.183 112.377 149.267 112.377 149.351 112.377C149.183 112.21 149.014 112.043 148.846 111.876C151.2 109.791 153.555 107.705 155.993 105.619C161.626 100.864 168.016 97.7776 175.499 97.6942C184.579 97.6107 191.978 101.281 198.031 107.789C203.16 113.295 206.271 119.885 206.271 127.477C206.355 129.979 205.935 132.399 205.682 134.901ZM144.811 132.065C146.576 131.815 148.09 131.481 149.603 131.314C154.9 130.73 159.944 131.231 164.4 134.484C167.848 136.987 170.034 140.574 171.715 144.412C173.06 147.498 174.238 150.669 175.499 153.755C176.255 155.674 177.769 156.759 179.787 157.092C185.083 158.093 189.96 156.675 194.416 153.839C199.797 150.335 202.487 145.329 202.319 138.906C202.151 134.651 200.638 130.73 198.788 126.976C194.08 117.215 186.261 111.543 175.331 110.291C166.755 109.29 158.599 110.959 150.612 114.212C149.098 114.796 147.921 115.797 147.081 117.132C144.895 120.636 144.474 124.473 144.558 128.478C144.558 129.646 144.726 130.814 144.811 132.065ZM138.589 102.116C138.421 101.615 138.337 101.448 138.252 101.198C132.787 88.9346 133.208 76.7547 139.093 64.825C142.961 56.9831 149.014 51.1434 156.245 46.3048C167.091 38.9635 178.862 36.6276 191.642 39.7143C194.248 40.3817 196.854 41.2159 199.545 42.0502C199.124 41.7165 198.872 41.3828 198.536 41.2159C195.425 39.2137 192.482 36.9613 189.203 35.2094C177.685 29.3697 165.83 28.3686 153.639 33.0403C147.333 35.4596 141.7 38.88 137.328 44.0523C133.88 48.1401 132.031 53.0622 130.517 58.1511C128.415 65.4924 127.743 73.084 126.482 80.5922C125.893 83.8457 125.221 87.1827 124.043 90.3528C122.866 93.5229 120.26 94.2738 117.317 92.6053C114.29 90.9368 111.768 88.6843 109.918 85.6811C107.312 81.4264 106.724 76.6712 106.808 71.8326C106.976 64.6581 108.657 57.7339 110.843 50.8931C114.206 40.1314 118.831 29.8702 123.623 19.609C124.548 17.6903 125.389 15.7715 126.314 13.8528C125.725 14.0196 125.389 14.3533 124.968 14.687C121.185 18.1908 118.326 22.4455 115.888 26.8669C111.348 35.1259 108.237 43.8855 105.715 52.8953C102.436 64.9084 100.334 77.0884 99.9133 89.602C99.9133 90.4363 100.166 90.8534 100.754 91.3539C110.087 98.5284 120.596 102.199 132.367 102.449C134.469 102.533 136.487 102.283 138.589 102.116ZM133.208 3.59157C133.208 3.50815 133.292 3.3413 133.292 3.25787C130.013 2.84075 126.65 2.34021 123.371 2.17336C115.804 1.83966 108.741 3.59157 102.352 7.84621C94.7005 13.0185 89.6559 20.193 86.545 28.7023C82.5093 39.9646 81.9208 51.5605 84.1908 63.2399C86.0405 72.8337 90.2444 81.2596 97.2228 88.2672C97.391 88.4341 97.6432 88.6009 98.0636 88.9346C97.8954 88.4341 97.8954 88.1004 97.8113 87.8501C95.5413 80.5922 93.8597 73.2508 93.103 65.6592C92.0941 55.6483 92.7667 45.7208 96.2139 36.2105C101.511 21.8615 111.096 11.5169 125.557 5.7606C128.079 4.84294 130.686 4.34239 133.208 3.59157ZM50.3918 83.0115C55.016 82.8446 59.5562 80.759 62.8352 76.0039C63.0875 75.6702 63.3397 75.0862 63.2556 74.6691C62.0785 69.9139 60.397 65.3255 57.0339 61.5714C54.1753 58.4013 50.644 57.6505 47.0287 59.8195C42.7408 62.3223 39.6299 65.9095 37.9484 70.5813C36.435 74.8359 37.9484 78.6734 41.9 81.0093C44.2542 82.4275 46.6924 83.0115 50.3918 83.0115ZM211.231 162.014C208.793 163.182 206.439 164.183 204.253 165.435C203.328 166.019 202.487 166.936 201.899 167.854C201.058 169.189 201.479 170.44 202.908 171.274C206.103 173.026 210.138 171.608 211.4 168.188C212.072 166.352 211.988 164.434 211.231 162.014ZM168.016 162.265C168.184 162.348 168.352 162.431 168.52 162.598C169.529 162.098 170.538 161.764 171.463 161.18C173.229 160.012 173.397 157.843 171.967 156.258C170.79 154.923 169.277 155.173 168.772 156.842C168.352 158.594 168.268 160.429 168.016 162.265ZM48.6262 53.4793C47.7013 49.2247 47.5332 45.1369 48.7943 40.8822C44.9268 45.4706 44.3382 50.7263 48.6262 53.4793Z" stroke="white" stroke-width="2" mask="url(#path-1-outside-1_1118_1113)"/>
</svg>
