<svg width="106" height="60" viewBox="0 0 106 60" fill="none" xmlns="http://www.w3.org/2000/svg">
<path d="M69.1455 49.0505C68.2497 51.2084 66.7 53.0233 64.7192 54.2341C61.6635 55.9742 58.1925 56.8291 54.6875 56.705H19.2944C14.928 56.705 10.946 55.651 8.11768 53.3875C6.73806 52.2792 5.63669 50.8573 4.90319 49.2375C4.16968 47.6177 3.82476 45.8457 3.89648 44.0656V42.5105C1.80298 42.2341 0 41.2665 0 38.5278C0 35.3485 1.98242 34.26 3.90503 33.8885C3.9014 32.1905 4.2786 30.5139 5.00826 28.9846C5.73792 27.4552 6.80104 26.1131 8.11768 25.0591C10.946 22.7956 14.9536 21.7416 19.2944 21.7416H43.2202C42.792 19.9151 42.8234 18.0093 43.3115 16.1982C43.7996 14.3872 44.7289 12.7287 46.0144 11.3744L47.0911 10.1562C45.7239 8.53204 45.0061 6.58819 46.8091 4.54931C48.894 2.17349 51.0815 2.69185 52.7905 3.68538C53.9766 2.36338 55.4572 1.34623 57.1097 0.718209C58.7621 0.0901919 60.5388 -0.130599 62.2925 0.0741351C65.7105 0.454266 69.1284 2.29444 72.2131 5.05903L98.6511 28.8517C101.736 31.625 103.94 34.8993 104.701 38.2341C105.117 40.0014 105.102 41.8447 104.655 43.6044C104.208 45.3642 103.344 46.9874 102.137 48.3334C102.439 48.7909 102.643 49.3065 102.737 49.8478C102.831 50.3891 102.813 50.9442 102.684 51.4782C102.541 52.0774 102.27 52.6376 101.89 53.1196C101.322 53.8313 100.529 54.3219 99.6434 54.5078C98.7583 54.6937 97.8368 54.5634 97.0361 54.1391L95.5237 55.8669C94.347 57.3258 92.8265 58.4622 91.102 59.1717C89.3774 59.8812 87.5041 60.1411 85.6543 59.9274C82.2363 59.5559 78.8184 57.7158 75.7251 54.9512L69.1797 49.0591L69.1455 49.0505ZM49.176 12.2383L48.219 13.3269C47.2414 14.3353 46.5291 15.5751 46.147 16.9332C45.7649 18.2914 45.7252 19.7246 46.0315 21.1023C46.6553 23.8323 48.5181 26.5364 51.1584 28.8777L77.6477 52.7136C80.2966 55.0894 83.1848 56.6618 85.9448 56.9728C87.3363 57.1213 88.7424 56.9153 90.0349 56.3735C91.3275 55.8318 92.4653 54.9716 93.3447 53.8713L94.6777 52.3594C94.2111 51.9634 93.6497 51.6983 93.0499 51.5907C92.45 51.483 91.8327 51.5366 91.2598 51.746C90.3562 51.9646 89.4094 51.9136 88.5339 51.5991C87.6372 51.2649 86.8318 50.7201 86.1841 50.0095C85.6326 49.4311 85.2065 48.7429 84.9328 47.9887C84.6592 47.2346 84.544 46.431 84.5947 45.6293C84.6378 45.0588 84.5364 44.4866 84.3002 43.9666C84.064 43.4467 83.7007 42.9961 83.2446 42.6574C82.1045 41.7889 80.7159 41.3189 79.2883 41.3183C77.8357 41.1887 76.5283 41.0591 75.3064 39.9878C74.8385 39.5737 74.4504 39.0758 74.1614 38.5192C73.8246 37.8755 73.5636 37.1941 73.3838 36.4889C72.3499 32.5494 71.2561 32.4543 69.8377 32.342C67.7588 32.3243 65.7619 31.5198 64.2407 30.0872C62.5317 28.5494 62.0874 26.5623 61.6773 24.7308C60.9082 21.6465 59.8145 21.6033 58.4302 21.6033C57.3941 21.689 56.3516 21.5642 55.364 21.2363C54.3764 20.9084 53.4636 20.384 52.6795 19.6941C50.8936 18.1217 50.7483 16.2383 50.6287 14.6487C50.6502 14.1696 50.5776 13.691 50.415 13.2405L50.3467 13.1714C50.1929 13.0331 49.9536 12.8431 49.6802 12.6184L49.2102 12.2383H49.176ZM55.0635 5.58603C70.1709 18.9079 85.0732 32.7394 100.018 46.2773C100.887 45.2824 101.508 44.0925 101.83 42.8064C102.153 41.5203 102.167 40.175 101.873 38.882C101.257 36.152 99.386 33.4479 96.7456 31.1066C87.9216 23.1296 79.0861 15.167 70.2393 7.21886C67.5989 4.86032 64.7363 3.29661 61.9849 2.99423C60.7113 2.85154 59.4223 3.01156 58.2206 3.46153C57.019 3.9115 55.9379 4.63898 55.0635 5.58603ZM97.4121 50.908L97.5232 51.003C98.2324 51.6337 98.822 51.746 99.2322 51.5732C99.374 51.5067 99.4994 51.4094 99.5996 51.2881C99.7034 51.1598 99.7789 51.0107 99.8212 50.8506C99.8635 50.6906 99.8716 50.5232 99.845 50.3597C99.8183 50.1962 99.7574 50.0404 99.6665 49.9025C99.5756 49.7647 99.4567 49.648 99.3176 49.5602C95.3699 46.0699 52.9785 7.78042 52.9785 7.64219C52.1753 6.91649 50.2356 5.1195 48.9624 6.56227C48.2959 7.32253 49.3127 8.45429 50.3296 9.3787C50.7483 9.75019 51.1328 10.0612 51.4661 10.3377C51.7993 10.6141 51.9873 10.761 52.2351 10.977L52.3206 11.0547C53.3289 11.9705 53.4143 13.1282 53.5168 14.4413C53.4846 14.996 53.5626 15.5516 53.746 16.0753C53.9294 16.5991 54.2147 17.0805 54.585 17.491C55.6654 18.3907 57.0536 18.8223 58.4473 18.6919C61.1047 18.6919 63.2324 18.7351 64.4287 24.0742C64.7363 25.4651 65.0696 26.9684 66.095 27.8841C67.1624 28.8476 68.5435 29.3797 69.9744 29.3787C72.5378 29.5861 74.5459 29.7502 76.1096 35.7027C76.2216 36.1809 76.3939 36.6426 76.6223 37.0764C76.7497 37.3243 76.9205 37.5468 77.1265 37.733C77.8328 38.1688 78.6492 38.3879 79.4763 38.3637C81.5042 38.3687 83.4686 39.0795 85.0391 40.3766C85.8348 40.9569 86.4712 41.7325 86.8883 42.6304C87.3054 43.5282 87.4895 44.5187 87.4231 45.5084C87.3896 45.9588 87.4482 46.4114 87.5952 46.838C87.7422 47.2646 87.9745 47.656 88.2776 47.9879C88.5995 48.3715 89.0106 48.6683 89.4739 48.8518C89.8216 48.9795 90.1983 49.0034 90.5591 48.9209C94.0881 48.057 95.3442 49.0937 97.3181 50.8302L97.4036 50.8993L97.4121 50.908ZM44.2456 24.7222H19.2944C15.5432 24.7222 12.1936 25.5861 9.89502 27.3917C8.96152 28.1542 8.20408 29.1137 7.67567 30.203C7.14727 31.2924 6.86068 32.4854 6.83594 33.6984L52.2437 33.8366L49.2615 31.1498C47.1951 29.3566 45.4943 27.1733 44.2542 24.7222H44.2456ZM55.542 36.774C39.2468 36.7308 22.9517 36.6271 6.66504 36.6271C5.56275 36.6271 2.93945 36.6271 2.93945 38.5278C2.90527 39.5472 4.41773 39.7459 5.77637 39.7459C6.38306 39.7459 6.85303 39.7459 7.26318 39.7028C7.67334 39.6596 8.02368 39.7028 8.36548 39.7028C9.72412 39.7028 10.553 40.5148 11.4929 41.4306C12.2449 42.165 13.1165 43.0116 14.2957 42.9943C15.6983 42.9325 17.0195 42.3112 17.97 41.2665C19.9695 39.4954 21.5759 38.0786 25.9766 41.2665C27.113 42.1304 28.3606 42.9943 29.7192 42.9943C31.1649 42.9943 32.5592 42.4525 33.6328 41.4738C35.6921 39.9015 37.29 38.6833 42.3743 42.0786C42.7551 42.3445 43.1651 42.5648 43.5962 42.7352H43.656C43.9155 42.8357 44.19 42.8912 44.4678 42.8993C45.2919 42.7426 46.0542 42.3498 46.6638 41.7676C48.182 40.4225 50.1075 39.6395 52.124 39.5472C53.0954 39.449 54.0755 39.602 54.9724 39.9919C55.8692 40.3818 56.6533 40.9958 57.251 41.7762C57.6587 42.3261 58.2268 42.7328 58.8753 42.939C59.5238 43.1451 60.2199 43.1403 60.8655 42.9252H60.9595C61.2337 42.8122 61.479 42.6379 61.6773 42.4155L55.542 36.774ZM63.9246 44.3248C63.4325 44.8858 62.8182 45.3236 62.1301 45.6034H62.002C61.1527 45.9174 60.2447 46.0355 59.3445 45.949C58.5432 45.8958 57.7621 45.6721 57.0523 45.2924C56.3425 44.9128 55.7201 44.3858 55.2258 43.746C54.8822 43.291 54.4297 42.9318 53.9111 42.7021C53.3924 42.4724 52.8245 42.3797 52.2607 42.4328C50.8371 42.5477 49.4897 43.1302 48.4241 44.0915C47.2449 44.9555 46.1768 45.8194 44.5361 45.8194C43.9202 45.8253 43.3078 45.726 42.7246 45.5257H42.6477C41.9964 45.2789 41.3768 44.954 40.802 44.5581C37.4353 42.3118 36.5295 42.9771 35.4187 43.8496C33.8561 45.232 31.8377 45.9719 29.762 45.9231C27.4719 45.9231 25.8313 44.7395 24.3274 43.6509C21.7639 41.8107 20.9607 42.5451 19.9268 43.4609C19.2078 44.2225 18.3451 44.8305 17.3896 45.249C16.4341 45.6675 15.4053 45.8879 14.364 45.8971C11.9971 45.8971 10.6641 44.6272 9.51904 43.5127C9.02344 43.0289 8.58765 42.6056 8.39966 42.6056C8.21167 42.6056 7.83569 42.6056 7.44263 42.6056H6.84448V44.0656C6.78345 45.3982 7.03315 46.7267 7.57345 47.9438C8.11374 49.1609 8.92948 50.2325 9.95483 51.0721C12.2363 52.895 15.5859 53.7417 19.3542 53.7417H54.6875C57.6516 53.8562 60.5898 53.1449 63.1812 51.6855C64.9444 50.6232 66.2403 48.9206 66.8042 46.9252L63.8904 44.3334L63.9246 44.3248Z" fill="#89C0C0"/>
</svg>
