<svg width="80" height="76" viewBox="0 0 80 76" fill="none" xmlns="http://www.w3.org/2000/svg">
<path d="M77.5167 35.1251C78.2591 33.0629 78.3388 31.061 77.7449 29.1543C77.0764 27.0084 75.6755 25.4323 74.4864 24.4145C75.788 23.0887 76.4721 21.2471 76.3394 19.3909C78.5269 18.328 80.0002 16.0716 80.0002 13.561C80.0002 11.0505 78.5269 8.79414 76.3394 7.73117C76.5128 5.30508 75.2952 2.90133 73.121 1.64602C70.9466 0.390863 68.2561 0.538676 66.2419 1.90133C64.2278 0.538519 61.537 0.390863 59.3628 1.64602C57.1888 2.90133 55.9714 5.30539 56.1445 7.73117C55.9455 7.82805 55.7545 7.93789 55.5678 8.05368C51.4949 1.77102 47.0358 0.934457 44.6277 1.03133C41.1247 1.17289 37.7978 3.40977 36.3491 6.59774C35.3839 8.7218 33.7983 9.61117 32.638 9.98321C30.8431 10.5588 28.79 10.336 27.1466 9.38727C25.3592 8.35539 23.2361 7.2718 21.0384 7.05836C18.9075 6.85149 16.9986 7.49305 15.3489 8.96117C14.7503 8.82305 14.2448 8.92102 13.9222 9.03071C12.2169 9.61133 11.2067 11.9051 10.4039 15.1584C9.76842 12.6907 9.13264 10.6649 8.61452 9.16071C8.37514 8.46571 8.20139 7.89133 8.06202 7.42977C7.69077 6.20102 7.39749 5.23039 6.32514 4.92805C5.25405 4.62602 4.49967 5.29711 3.54545 6.1468C3.42998 6.24961 3.30514 6.36071 3.16983 6.48008L0.52967 8.8068C0.0304508 9.24664 -0.135643 9.95446 0.116076 10.5705C2.18061 15.6204 4.5778 29.598 5.39264 34.5888H4.64733C2.08483 34.5888 -1.80224e-05 36.6735 -1.80224e-05 39.2362V45.5666C-1.80224e-05 46.7496 0.444982 47.8302 1.17545 48.6515C0.444826 49.4727 -1.80224e-05 50.5532 -1.80224e-05 51.7363V58.0668C-1.80224e-05 59.2498 0.444982 60.3304 1.17545 61.1516C0.444826 61.9729 -1.80224e-05 63.0532 -1.80224e-05 64.2362V70.5666C-1.80224e-05 73.1291 2.08483 75.2138 4.64733 75.2138H75.3525C77.915 75.2138 79.9999 73.1291 79.9999 70.5666V64.2362C79.9999 63.0532 79.5549 61.9727 78.8244 61.1515C79.555 60.3302 79.9999 59.2496 79.9999 58.0666V51.7362C79.9999 50.5532 79.5549 49.4726 78.8244 48.6513C79.555 47.8301 79.9999 46.7496 79.9999 45.5665V39.236C80 37.4545 78.9919 35.9048 77.5167 35.1251ZM74.7611 30.0838C75.1921 31.4668 75.0589 32.9791 74.3705 34.5888H66.2631C66.3239 34.4843 66.3845 34.3802 66.4452 34.2752C68.287 31.0849 69.3503 28.5252 69.715 26.3398C69.7717 26.3412 69.8285 26.3432 69.885 26.3432C70.4547 26.3432 71.0224 26.2674 71.5733 26.1185C72.4369 26.7013 74.1303 28.059 74.7611 30.0838ZM58.2516 10.287C58.6838 10.1945 59.0564 9.92305 59.2774 9.54039C59.4983 9.15758 59.547 8.69914 59.4111 8.27867C58.9295 6.78852 59.5663 5.13743 60.9252 4.35274C62.2842 3.56836 64.0327 3.84211 65.0822 5.00414C65.3783 5.33211 65.7997 5.5193 66.2417 5.5193C66.6836 5.5193 67.1049 5.33211 67.4013 5.00414C68.451 3.84196 70.1995 3.56789 71.5583 4.35258C72.9174 5.13727 73.5541 6.78836 73.0725 8.27852C72.9366 8.69899 72.9852 9.15742 73.2061 9.54024C73.4271 9.92305 73.7999 10.1943 74.2319 10.2868C75.7633 10.6148 76.8747 11.9918 76.8747 13.5612C76.8747 15.1305 75.7633 16.5074 74.2321 16.8354C73.7999 16.9279 73.4271 17.1991 73.2061 17.582C72.9852 17.9648 72.9364 18.4232 73.0725 18.8438C73.5541 20.334 72.9172 21.9851 71.5583 22.7699C70.9988 23.093 70.3638 23.2427 69.7308 23.2135C69.4027 21.4121 68.4731 20.0355 67.3364 18.9505C68.1256 17.9835 69.1964 17.0182 70.2002 16.5987C70.9964 16.266 71.3722 15.3507 71.0394 14.5546C70.7067 13.7585 69.7916 13.3827 68.9953 13.7154C67.4024 14.3812 65.9024 15.7305 64.8256 17.0818C64.6713 16.9882 64.5177 16.8976 64.3661 16.8101C64.2089 16.7193 64.0541 16.6329 63.9006 16.5491C64.5328 14.9407 64.9517 12.9665 64.7316 11.2537C64.6217 10.3976 63.8381 9.79243 62.9828 9.90289C62.1269 10.0129 61.5222 10.7959 61.6322 11.6516C61.7711 12.7326 61.4692 14.1454 61.025 15.3137C60.1747 15.063 59.3695 14.9402 58.586 14.9402C57.7416 14.9402 56.9289 15.0777 56.1347 15.3602C55.7952 14.8277 55.6086 14.2051 55.6086 13.5613C55.6088 11.9921 56.7202 10.6149 58.2516 10.287ZM56.2249 22.8785C56.7649 22.8785 57.2902 22.5982 57.5795 22.097C58.0111 21.3496 57.755 20.394 57.0077 19.9626L55.6524 19.1801C55.9161 18.9765 56.1689 18.8065 56.4102 18.6684C56.452 18.6482 56.4927 18.6254 56.5328 18.6013C57.3281 18.1724 58.0031 18.0652 58.5858 18.0652C59.7485 18.0652 61.0888 18.5263 62.8035 19.5163C65.2866 20.9499 66.4472 22.2743 66.6845 23.9451C66.8747 25.2826 66.4939 27.0274 65.5302 29.227L63.1367 27.8451C62.3891 27.4132 61.4338 27.6696 61.0024 28.417C60.5708 29.1643 60.8269 30.1199 61.5742 30.5513L64.1278 32.0255C64.0024 32.251 63.8733 32.4796 63.7389 32.7124C63.373 33.346 63.0044 33.9743 62.638 34.5884H46.0199C46.647 33.2502 47.3389 31.8601 48.0877 30.4274L49.8541 31.4471C50.1002 31.5891 50.3688 31.6566 50.6338 31.6566C51.1738 31.6566 51.6991 31.3763 51.9884 30.8749C52.42 30.1276 52.1639 29.172 51.4166 28.7405L49.5684 27.6737C49.9995 26.8948 50.4456 26.1051 50.9078 25.3045C51.8244 23.717 52.6574 22.4729 53.4172 21.4979L55.4453 22.6688C55.6913 22.811 55.9599 22.8785 56.2249 22.8785ZM22.9453 31.3076C22.9453 24.5296 28.4597 19.0154 35.2377 19.0154C40.222 19.0154 44.7011 22.0368 46.5931 26.5996C46.4311 26.8948 46.2711 27.1885 46.1138 27.4805C46.1131 27.4813 46.1127 27.482 46.1122 27.4827C46.1106 27.4852 46.1097 27.4879 46.1083 27.4905C44.7653 29.981 43.5861 32.3554 42.5825 34.589H23.3889V34.5888C23.0945 33.5249 22.9453 32.4257 22.9453 31.3076ZM23.908 14.6604C22.1797 13.722 20.5392 13.5802 19.2161 13.7307C19.2533 13.6307 19.2911 13.5334 19.33 13.4385C19.5784 12.8305 19.4203 12.1321 18.9342 11.6905L18.0003 10.8423C19.8223 9.61961 22.0045 10.0273 25.5844 12.094C27.0997 12.9688 28.855 13.4196 30.6039 13.4196C31.6183 13.4196 32.6308 13.2679 33.5925 12.9595C36.0827 12.1609 38.072 10.3609 39.1945 7.89102C39.9777 6.16774 42.0514 4.26336 44.7542 4.15414C47.8024 4.02977 50.8266 6.23242 53.3345 10.3751C52.7934 11.3254 52.4841 12.416 52.4841 13.5613C52.4841 14.7676 52.8225 15.9348 53.4402 16.9426C52.9327 17.3629 52.4272 17.8532 51.92 18.4157C51.9025 18.4345 51.8852 18.4532 51.8685 18.4729C50.7463 19.7284 49.6155 21.3398 48.437 23.3404C46.9047 20.8055 44.6819 18.7841 42.0683 17.4904C42.3577 16.4554 42.9016 14.8884 43.8233 13.4663C44.2927 12.7423 44.0863 11.7746 43.362 11.3052C42.6377 10.8355 41.6705 11.0423 41.2009 11.7665C40.1475 13.3915 39.502 15.1412 39.1331 16.394C37.8802 16.0659 36.5739 15.8901 35.2377 15.8901C26.7366 15.8901 19.8205 22.8062 19.8205 31.3071C19.8205 32.4187 19.9405 33.5157 20.1733 34.5884H17.6898C17.5694 31.2268 17.3975 22.8523 18.3733 17.1107C19.178 16.8157 20.7266 16.4887 22.4167 17.4066C22.6537 17.5352 22.9091 17.5963 23.1611 17.5963C23.7155 17.5963 24.2523 17.3005 24.5356 16.7791C24.9473 16.0209 24.6664 15.0723 23.908 14.6604ZM12.4316 20.8746C12.7408 19.1493 13.1251 17.0023 13.6273 15.1662C14.1386 13.297 14.5755 12.4954 14.8114 12.1677L16.0623 13.304C14.2097 19.1999 14.4076 30.3698 14.5603 34.5885H13.2647C13.0837 30.3238 12.6283 26.4059 12.0464 22.9282C12.1631 22.3718 12.2891 21.6698 12.4316 20.8746ZM3.4042 10.439L5.22358 8.83602C5.34233 9.22149 5.48358 9.66633 5.66014 10.1788C7.1478 14.4979 9.6403 23.2638 10.1366 34.5887H8.55999C7.86436 30.2646 5.58092 16.6727 3.4042 10.439ZM76.8752 70.5662C76.8752 71.4055 76.1922 72.0884 75.3528 72.0884H4.64748C3.80811 72.0884 3.12514 71.4055 3.12514 70.5662V64.2357C3.12514 63.3963 3.80811 62.7135 4.64748 62.7135H75.3527C76.1921 62.7135 76.875 63.3963 76.875 64.2357V70.5662H76.8752ZM76.8752 58.0665C76.8752 58.906 76.1922 59.5888 75.3528 59.5888H4.64748C3.80811 59.5888 3.12514 58.9059 3.12514 58.0665V51.736C3.12514 50.8966 3.80811 50.2137 4.64748 50.2137H75.3527C76.1919 50.2137 76.875 50.8966 76.875 51.736V58.0665H76.8752ZM76.8752 45.5665C76.8752 46.4059 76.1922 47.0888 75.3528 47.0888H4.64748C3.80811 47.0888 3.12514 46.4059 3.12514 45.5665V39.236C3.12514 38.3966 3.80811 37.7137 4.64748 37.7137H75.3463C75.348 37.7137 75.3495 37.714 75.3513 37.714C75.3524 37.714 75.3535 37.7138 75.3546 37.7138C76.193 37.7148 76.875 38.3973 76.875 39.236V45.5665H76.8752Z" fill="#89C0C0"/>
<path d="M57.714 28.323L57.7303 28.3324C57.9759 28.4736 58.2439 28.5408 58.5082 28.5408C59.049 28.5408 59.575 28.2597 59.864 27.7574C60.2942 27.0096 60.0368 26.0543 59.289 25.6238L59.2728 25.6144C58.5248 25.1841 57.5695 25.4416 57.1392 26.1894C56.7087 26.9374 56.9662 27.8925 57.714 28.323Z" fill="#89C0C0"/>
<path d="M46.0589 10.949C46.2731 10.949 46.4909 10.9047 46.6989 10.8112L46.7574 10.7854C47.5481 10.4395 47.9084 9.51826 47.5625 8.72763C47.2166 7.93685 46.2945 7.57654 45.5049 7.92247L45.4172 7.96123C44.6302 8.31513 44.2791 9.24013 44.633 10.027C44.8933 10.6059 45.4627 10.949 46.0589 10.949Z" fill="#89C0C0"/>
<path d="M9.53171 40.8386C8.67109 40.8386 7.96906 41.5405 7.96906 42.4011C7.96906 43.2616 8.67109 43.9636 9.53171 43.9636C10.3923 43.9636 11.0942 43.2616 11.0942 42.4011C11.0942 41.5405 10.3923 40.8386 9.53171 40.8386Z" fill="#89C0C0"/>
<path d="M9.53171 53.3386C8.67109 53.3386 7.96906 54.0405 7.96906 54.9011C7.96906 55.7616 8.67109 56.4636 9.53171 56.4636C10.3923 56.4636 11.0942 55.7616 11.0942 54.9011C11.0942 54.0405 10.3923 53.3386 9.53171 53.3386Z" fill="#89C0C0"/>
<path d="M9.53171 65.8384C8.67109 65.8384 7.96906 66.5403 7.96906 67.401C7.96906 68.2615 8.67109 68.9635 9.53171 68.9635C10.3923 68.9635 11.0942 68.2615 11.0942 67.401C11.0942 66.5404 10.3922 65.8384 9.53171 65.8384Z" fill="#89C0C0"/>
<path d="M70.4688 40.8386C69.6081 40.8386 68.9062 41.5405 68.9062 42.4011C68.9062 43.2616 69.6081 43.9636 70.4688 43.9636C71.3295 43.9636 72.0314 43.2616 72.0314 42.4011C72.0314 41.5405 71.3295 40.8386 70.4688 40.8386Z" fill="#89C0C0"/>
<path d="M70.4688 53.3386C69.6081 53.3386 68.9062 54.0405 68.9062 54.9011C68.9062 55.7616 69.6081 56.4636 70.4688 56.4636C71.3295 56.4636 72.0314 55.7616 72.0314 54.9011C72.0314 54.0405 71.3295 53.3386 70.4688 53.3386Z" fill="#89C0C0"/>
<path d="M70.4688 65.8384C69.6081 65.8384 68.9062 66.5403 68.9062 67.401C68.9062 68.2615 69.6081 68.9635 70.4688 68.9635C71.3295 68.9635 72.0314 68.2615 72.0314 67.401C72.0314 66.5404 71.3294 65.8384 70.4688 65.8384Z" fill="#89C0C0"/>
</svg>
