<svg width="80" height="80" viewBox="0 0 80 80" fill="none" xmlns="http://www.w3.org/2000/svg">
<path d="M1.31212 39.9823H1.35879C2.07777 39.9828 2.66759 39.4129 2.69209 38.6943C3.41341 18.0888 20.7022 1.96946 41.3077 2.69061C49.2335 2.9681 56.865 5.76221 63.096 10.6683H56.0002C55.2639 10.6683 54.6669 11.2652 54.6669 12.0016C54.6669 12.7379 55.2639 13.3349 56.0002 13.3349H66.6666H66.6853C66.7896 13.3264 66.8924 13.3059 66.992 13.2735C67.0601 13.2637 67.1273 13.249 67.1933 13.2295C67.2306 13.2135 67.2586 13.1802 67.2946 13.1602C67.4143 13.1017 67.5241 13.0247 67.6199 12.9322L67.6333 12.9229C67.6671 12.8765 67.6979 12.828 67.7253 12.7775C67.7951 12.6925 67.8539 12.5989 67.8999 12.4989C67.9366 12.3926 67.9591 12.2819 67.9666 12.1696C67.9819 12.1146 67.9931 12.0584 67.9999 12.0016V1.33514C67.9999 0.598824 67.4029 0.00183813 66.6666 0.00183813C65.9303 0.00183813 65.3333 0.598824 65.3333 1.33514V9.05763C48.2502 -4.93905 23.0548 -2.43711 9.05811 14.6462C3.50274 21.4267 0.329143 29.8447 0.025483 38.605C0.000816906 39.3404 0.576637 39.9569 1.31212 39.9823Z" fill="#FFBDBD"/>
<path d="M12.1065 64.8124C11.6172 64.26 10.7729 64.209 10.2205 64.6984C9.66822 65.1877 9.61722 66.032 10.1065 66.5843C11.0244 67.6143 11.994 68.5969 13.0118 69.5282C13.5653 70.0141 14.4076 69.9591 14.8934 69.4058C15.3654 68.8679 15.3288 68.0536 14.8104 67.5603C13.8628 66.6912 12.9603 65.774 12.1065 64.8124Z" fill="#FFBDBD"/>
<path d="M28.0182 75.3695C26.7992 74.9569 25.6026 74.4811 24.4329 73.9442C23.7731 73.6174 22.9731 73.8874 22.6463 74.5472C22.3195 75.207 22.5895 76.007 23.2493 76.3338C23.272 76.345 23.295 76.3557 23.3183 76.3655C24.5723 76.9428 25.8559 77.4536 27.1636 77.8961C27.8612 78.1321 28.6182 77.7578 28.8542 77.0601C29.0903 76.3625 28.716 75.6055 28.0182 75.3695Z" fill="#FFBDBD"/>
<path d="M21.0143 72.1522V72.1509C19.9062 71.4944 18.8321 70.7824 17.7957 70.0176C17.2176 69.5614 16.3793 69.6604 15.9231 70.2386C15.467 70.8167 15.566 71.655 16.1441 72.1112C16.1658 72.1282 16.1878 72.1447 16.2104 72.1604C17.3188 72.9808 18.4682 73.744 19.6544 74.447C20.288 74.8225 21.1062 74.6133 21.4817 73.9797C21.8573 73.3458 21.648 72.5277 21.0143 72.1522Z" fill="#FFBDBD"/>
<path d="M9.69195 61.8031C8.9403 60.7581 8.24265 59.6753 7.60133 58.5592C7.23317 57.9204 6.41686 57.7011 5.77804 58.0692C5.13922 58.4374 4.91989 59.2537 5.28805 59.8925C5.97504 61.086 6.72269 62.2434 7.528 63.3604C7.97016 63.9492 8.80597 64.0681 9.39479 63.6259C9.96678 63.1964 10.0979 62.3921 9.69195 61.8031Z" fill="#FFBDBD"/>
<path d="M5.97303 55.6684C5.97303 55.4825 5.93403 55.2987 5.85886 55.1289L5.85619 55.1195C5.33437 53.9442 4.87372 52.7426 4.47623 51.5196C4.2829 50.8091 3.55008 50.3898 2.8396 50.5833C2.12911 50.7766 1.70979 51.5094 1.90328 52.2199C1.91462 52.2613 1.92778 52.3021 1.94295 52.3423C2.36844 53.6557 2.86159 54.9464 3.42025 56.2088C3.63408 56.6915 4.1124 57.0025 4.64022 57.0022C5.37654 57.0018 5.97319 56.4047 5.97303 55.6684Z" fill="#FFBDBD"/>
<path d="M2.45274 49.3688C2.45291 49.3688 2.45324 49.3686 2.45341 49.3686C3.17289 49.2153 3.63221 48.5083 3.48005 47.7886C3.21439 46.5292 3.01323 45.2569 2.8774 43.9767C2.79973 43.2441 2.14275 42.7131 1.4101 42.7907C0.677448 42.8684 0.14646 43.5254 0.224125 44.258C0.370122 45.6292 0.586283 46.9918 0.87211 48.3406C1.02477 49.0611 1.73242 49.5213 2.45274 49.3688Z" fill="#FFBDBD"/>
<path d="M77.868 48.0078C77.8675 48.0076 77.867 48.0076 77.8665 48.0074C77.1519 47.8304 76.4291 48.2661 76.2519 48.9807C75.9429 50.2307 75.5696 51.4638 75.1333 52.6753C74.8836 53.3683 75.2429 54.1323 75.9359 54.3819C76.6289 54.6316 77.3929 54.2723 77.6425 53.5793C78.1104 52.2818 78.5109 50.9609 78.8425 49.6221C79.0192 48.9073 78.5829 48.1846 77.868 48.0078Z" fill="#FFBDBD"/>
<path d="M35.5353 77.0668C34.2573 76.9146 32.9882 76.6966 31.7327 76.4135C31.0144 76.2511 30.3004 76.7018 30.1381 77.4201C29.9757 78.1384 30.4264 78.8524 31.1447 79.0147C32.4904 79.3181 33.8508 79.5517 35.2206 79.7147C35.2738 79.7212 35.3271 79.7242 35.3806 79.7241C36.1169 79.7226 36.7126 79.1242 36.7111 78.3879C36.7098 77.7136 36.2051 77.1465 35.5353 77.0668Z" fill="#FFBDBD"/>
<path d="M75.4093 55.6124C74.7464 55.2924 73.9498 55.5699 73.6291 56.2324C73.0686 57.3914 72.4483 58.5205 71.7705 59.615C71.3935 60.2476 71.6008 61.066 72.2335 61.4428C72.8507 61.8106 73.6485 61.6231 74.0371 61.019C74.7628 59.8458 75.4273 58.6357 76.0277 57.3937C76.3489 56.7311 76.0719 55.9336 75.4093 55.6124Z" fill="#FFBDBD"/>
<path d="M71.4702 62.5469C70.8938 62.0885 70.055 62.1842 69.5967 62.7607C69.5887 62.7707 69.5809 62.7809 69.5732 62.791V62.7884C68.7866 63.8088 67.9477 64.7878 67.0599 65.7216C66.5523 66.2554 66.5735 67.0999 67.1073 67.6076C67.6411 68.1152 68.4856 68.0941 68.9932 67.5603C69.9425 66.5598 70.8407 65.5118 71.6838 64.4203C72.1421 63.844 72.0465 63.0052 71.4702 62.5469Z" fill="#FFBDBD"/>
<path d="M78.689 40.0638C77.9647 40.0268 77.3474 40.5841 77.3106 41.3084C77.3099 41.3219 77.3094 41.3356 77.3091 41.3491C77.2639 42.6357 77.1521 43.9192 76.9744 45.1943C76.8739 45.9228 77.3822 46.5949 78.1104 46.6969C78.1722 46.7059 78.2345 46.7104 78.297 46.7103C78.9615 46.7093 79.524 46.2191 79.6157 45.561C79.8055 44.1952 79.9252 42.8205 79.9743 41.4424C79.9998 40.7069 79.4247 40.0898 78.689 40.0638Z" fill="#FFBDBD"/>
<path d="M64.2667 68.3738V68.3778C63.2854 69.2155 62.2619 70.0023 61.2001 70.7351C60.593 71.1547 60.4411 71.9872 60.8608 72.5944C61.2804 73.2015 62.1129 73.3534 62.7201 72.9337C63.8556 72.1452 64.9502 71.2997 66 70.4004C66.5597 69.9218 66.6253 69.0801 66.1467 68.5205C65.6682 67.9608 64.8264 67.8952 64.2667 68.3738Z" fill="#FFBDBD"/>
<path d="M50.815 75.7442C49.5829 76.1155 48.3324 76.4225 47.0684 76.6642C46.3453 76.8033 45.8718 77.5022 46.0109 78.2253C46.1314 78.8521 46.6794 79.3056 47.3177 79.3068C47.4022 79.3071 47.4866 79.2995 47.5697 79.2841C48.9247 79.0251 50.2652 78.6955 51.5857 78.2961C52.285 78.0656 52.6651 77.3118 52.4346 76.6125C52.2123 75.9379 51.5 75.556 50.815 75.7442Z" fill="#FFBDBD"/>
<path d="M43.3138 77.1885C43.2893 77.1899 43.265 77.192 43.2406 77.1947L43.2473 77.2C42.1807 77.2907 41.0887 77.3334 40.0007 77.3334H39.3914C38.6642 77.3437 38.0699 77.9164 38.0328 78.6427C38.0194 79.379 38.6054 79.9866 39.3416 80C39.3417 80 39.3419 80 39.3421 80H40.0007C41.166 80 42.334 79.948 43.4673 79.8506C44.2025 79.8083 44.7641 79.178 44.7216 78.4428C44.6791 77.7077 44.0488 77.146 43.3138 77.1885Z" fill="#FFBDBD"/>
<path d="M57.9189 72.759H57.9202C56.7914 73.3771 55.6317 73.937 54.4456 74.4363C53.7633 74.7131 53.4345 75.4906 53.7111 76.1729C53.9878 76.8552 54.7654 77.184 55.4478 76.9074C55.4578 76.9034 55.4676 76.8992 55.4774 76.8949C56.7484 76.3601 57.9909 75.7602 59.2 75.0976C59.8458 74.7438 60.0825 73.9335 59.7287 73.2876C59.3752 72.6418 58.5647 72.4052 57.9189 72.759Z" fill="#FFBDBD"/>
<path d="M40.0005 12.0017C24.5369 12.0017 12.0012 24.5374 12.0012 40.0011C12.0012 55.4647 24.5369 68.0004 40.0005 68.0004C55.4642 68.0004 67.9999 55.4647 67.9999 40.0011C67.9824 24.5448 55.4569 12.0194 40.0005 12.0017ZM61.3334 41.3344H65.2653C64.5727 54.2536 54.2531 64.5732 41.3339 65.2658V61.3339C41.3339 60.5976 40.7369 60.0006 40.0005 60.0006C39.2642 60.0006 38.6672 60.5976 38.6672 61.3339V65.2658C25.748 64.5732 15.4284 54.2536 14.7358 41.3344H18.6677C19.404 41.3344 20.001 40.7374 20.001 40.0011C20.001 39.2648 19.404 38.6678 18.6677 38.6678H14.7358C15.4284 25.7486 25.748 15.429 38.6672 14.7363V18.6682C38.6672 19.4045 39.2642 20.0015 40.0005 20.0015C40.7369 20.0015 41.3339 19.4045 41.3339 18.6682V14.7363C54.2531 15.429 64.5727 25.7486 65.2653 38.6678H61.3334C60.5971 38.6678 60.0001 39.2648 60.0001 40.0011C60.0001 40.7374 60.5971 41.3344 61.3334 41.3344Z" fill="#FFBDBD"/>
<path d="M41.3339 36.2463V24.0013C41.3339 23.265 40.7369 22.668 40.0006 22.668C39.2642 22.668 38.6672 23.265 38.6672 24.0013V36.2463C37.5381 36.6496 36.6493 37.5385 36.246 38.6676H29.3341C28.5978 38.6676 28.0008 39.2646 28.0008 40.0009C28.0008 40.7372 28.5978 41.3342 29.3341 41.3342H36.246C36.9766 43.4135 39.2546 44.5068 41.3339 43.7761C43.4131 43.0455 44.5065 40.7675 43.7758 38.6883C43.3745 37.5459 42.4762 36.6478 41.3339 36.2463ZM40.0006 41.3342C39.2642 41.3342 38.6672 40.7372 38.6672 40.0009C38.6672 39.2646 39.2642 38.6676 40.0006 38.6676C40.7369 38.6676 41.3339 39.2646 41.3339 40.0009C41.3339 40.7372 40.737 41.3342 40.0006 41.3342Z" fill="#FFBDBD"/>
</svg>
