<svg aria-hidden="true" style="position: absolute; width: 0; height: 0; overflow: hidden;" version="1.1"
  xmlns="http://www.w3.org/2000/svg"
  xmlns:xlink="http://www.w3.org/1999/xlink">
  <defs>
    <symbol id="icon-Location-icon" viewBox="0 0 22 32">
      <path fill="#fff" style="fill: var(--color1, #fff)" d="M21.333 10.959c0 4.817-2.636 9.849-5.405 13.775-1.37 1.942-2.742 3.572-3.771 4.715-0.369 0.41-0.694 0.757-0.957 1.033-0.264-0.276-0.588-0.622-0.957-1.033-1.029-1.144-2.401-2.773-3.771-4.715-2.769-3.926-5.405-8.958-5.405-13.775 0-5.442 4.515-9.892 10.133-9.892s10.133 4.451 10.133 9.892zM22.4 10.959c0 10.319-11.2 21.041-11.2 21.041s-11.2-10.722-11.2-21.041c0-6.052 5.014-10.959 11.2-10.959s11.2 4.906 11.2 10.959zM16.853 10.24c0 2.897-2.482 5.333-5.653 5.333s-5.653-2.436-5.653-5.333 2.481-5.333 5.653-5.333c3.172 0 5.653 2.436 5.653 5.333zM17.92 10.24c0 3.535-3.009 6.4-6.72 6.4s-6.72-2.865-6.72-6.4c0-3.535 3.009-6.4 6.72-6.4s6.72 2.865 6.72 6.4z"></path>
    </symbol>
    <symbol id="icon-blender" viewBox="0 0 32 32">
      <path fill="#89c0c0" style="fill: var(--color2, #89c0c0)" d="M20.904 26.056l-0.833-1.877c-0.4-0.902-0.604-1.86-0.605-2.846-0.001-0.294-0.239-0.533-0.533-0.533h-9.6c-0.294 0-0.533 0.238-0.533 0.533v0.351c-0.001 1.086-0.26 2.172-0.749 3.143l-0.533 1.067c-0.559 1.119-0.854 2.371-0.851 3.62v1.952c0 0.295 0.239 0.533 0.533 0.533h13.867c0.294 0 0.533-0.238 0.534-0.533v-2.133c-0.001-1.135-0.236-2.238-0.697-3.277zM20.533 30.933h-12.801v-1.42c-0.002-1.085 0.253-2.172 0.739-3.142l0.533-1.065c0.535-1.064 0.831-2.25 0.86-3.44h8.554c0.062 0.948 0.29 1.869 0.678 2.745l0.833 1.877c0.4 0.902 0.604 1.86 0.605 2.845v1.6h-0z"></path>
      <path fill="#89c0c0" style="fill: var(--color2, #89c0c0)" d="M21.468 4.982c-0.101-0.115-0.247-0.182-0.401-0.182h-15.467c-0.197 0-0.378 0.108-0.47 0.282s-0.083 0.383 0.027 0.547l2.063 3.095 1.585 12.675c0.033 0.267 0.26 0.467 0.529 0.467h9.6c0.267 0 0.493-0.198 0.528-0.463l2.133-16c0.020-0.152-0.026-0.306-0.127-0.422zM18.465 20.8h-8.662l-1.542-12.333c-0.010-0.083-0.039-0.161-0.085-0.23l-1.58-2.371h13.86l-1.991 14.933z"></path>
      <path fill="#89c0c0" style="fill: var(--color2, #89c0c0)" d="M18.4 2.133h-8.533c-1.765 0-3.2 1.435-3.2 3.2 0 0.294 0.239 0.533 0.533 0.533h13.867c0.294 0 0.533-0.239 0.533-0.533 0-1.765-1.435-3.2-3.2-3.2zM7.8 4.8c0.237-0.919 1.074-1.6 2.066-1.6h8.533c0.992 0 1.828 0.681 2.066 1.6h-12.665z"></path>
      <path fill="#89c0c0" style="fill: var(--color2, #89c0c0)" d="M16.266 0h-4.267c-0.294 0-0.533 0.239-0.533 0.533v2.133c0 0.294 0.239 0.533 0.533 0.533h4.267c0.294 0 0.533-0.239 0.533-0.533v-2.133c0-0.294-0.238-0.533-0.533-0.533zM15.733 2.133h-3.2v-1.067h3.2v1.067z"></path>
      <path fill="#89c0c0" style="fill: var(--color2, #89c0c0)" d="M25.333 6.933h-4.267v1.067h4.267c0.294 0 0.533 0.239 0.533 0.533v8.766c0.006 0.252-0.167 0.477-0.411 0.533l-6.107 1.381 0.235 1.040 6.109-1.382c0.738-0.171 1.259-0.843 1.24-1.587v-8.752c0-0.882-0.718-1.6-1.6-1.6z"></path>
      <path fill="#89c0c0" style="fill: var(--color2, #89c0c0)" d="M24.266 9.067h-3.733v1.067h3.2v5.973l-4.382 0.973 0.231 1.042 4.8-1.067c0.244-0.055 0.418-0.271 0.418-0.521v-6.933c0-0.294-0.238-0.533-0.533-0.533z"></path>
      <path fill="#89c0c0" style="fill: var(--color2, #89c0c0)" d="M12 7.975l-1.066 0.051 0.534 11.199 1.066-0.051-0.534-11.199z"></path>
      <path fill="#89c0c0" style="fill: var(--color2, #89c0c0)" d="M16.269 7.972l-0.536 11.199 1.066 0.051 0.536-11.199-1.066-0.051z"></path>
      <path fill="#89c0c0" style="fill: var(--color2, #89c0c0)" d="M14.133 24c-1.47 0-2.667 1.196-2.667 2.667s1.196 2.667 2.667 2.667c1.47 0 2.667-1.196 2.667-2.667s-1.196-2.667-2.667-2.667zM14.133 28.267c-0.882 0-1.6-0.718-1.6-1.6s0.718-1.6 1.6-1.6c0.882 0 1.6 0.718 1.6 1.6s-0.718 1.6-1.6 1.6z"></path>
    </symbol>
    <symbol id="icon-Group-1" viewBox="0 0 32 32">
      <path fill="#ffbdbd" style="fill: var(--color3, #ffbdbd)" d="M0.525 15.993h0.019c0.288 0 0.524-0.228 0.533-0.515 0.289-8.242 7.204-14.69 15.446-14.401 3.17 0.111 6.223 1.229 8.715 3.191h-2.838c-0.295 0-0.533 0.239-0.533 0.533s0.239 0.533 0.533 0.533h4.274c0.042-0.003 0.083-0.012 0.123-0.025 0.027-0.004 0.054-0.010 0.081-0.018 0.015-0.006 0.026-0.020 0.041-0.028 0.048-0.023 0.092-0.054 0.13-0.091l0.005-0.004c0.014-0.019 0.026-0.038 0.037-0.058 0.028-0.034 0.051-0.071 0.070-0.111 0.015-0.043 0.024-0.087 0.027-0.132 0.006-0.022 0.011-0.044 0.013-0.067v-4.267c0-0.295-0.239-0.533-0.533-0.533s-0.533 0.239-0.533 0.533v3.089c-6.833-5.599-16.911-4.598-22.51 2.235-2.222 2.712-3.492 6.079-3.613 9.584-0.010 0.294 0.22 0.541 0.515 0.551z"></path>
      <path fill="#ffbdbd" style="fill: var(--color3, #ffbdbd)" d="M4.843 25.925c-0.196-0.221-0.533-0.241-0.754-0.046s-0.241 0.533-0.046 0.754c0.367 0.412 0.755 0.805 1.162 1.178 0.221 0.194 0.558 0.172 0.753-0.049 0.189-0.215 0.174-0.541-0.033-0.738-0.379-0.348-0.74-0.715-1.082-1.099z"></path>
      <path fill="#ffbdbd" style="fill: var(--color3, #ffbdbd)" d="M11.207 30.148c-0.488-0.165-0.966-0.355-1.434-0.57-0.264-0.131-0.584-0.023-0.715 0.241s-0.023 0.584 0.241 0.715c0.009 0.004 0.018 0.009 0.028 0.013 0.502 0.231 1.015 0.435 1.538 0.612 0.279 0.094 0.582-0.055 0.676-0.334s-0.055-0.582-0.334-0.676z"></path>
      <path fill="#ffbdbd" style="fill: var(--color3, #ffbdbd)" d="M8.406 28.861v-0.001c-0.443-0.263-0.873-0.547-1.287-0.853-0.231-0.182-0.567-0.143-0.749 0.088s-0.143 0.567 0.088 0.749c0.009 0.007 0.017 0.013 0.027 0.020 0.443 0.328 0.903 0.633 1.378 0.915 0.253 0.15 0.581 0.067 0.731-0.187s0.067-0.581-0.187-0.731z"></path>
      <path fill="#ffbdbd" style="fill: var(--color3, #ffbdbd)" d="M3.877 24.721c-0.301-0.418-0.58-0.851-0.836-1.298-0.147-0.256-0.474-0.343-0.729-0.196s-0.343 0.474-0.196 0.729c0.275 0.477 0.574 0.94 0.896 1.387 0.177 0.236 0.511 0.283 0.747 0.106 0.229-0.172 0.281-0.494 0.119-0.729z"></path>
      <path fill="#ffbdbd" style="fill: var(--color3, #ffbdbd)" d="M2.389 22.267c0-0.074-0.016-0.148-0.046-0.216l-0.001-0.004c-0.209-0.47-0.393-0.951-0.552-1.44-0.077-0.284-0.37-0.452-0.655-0.375s-0.452 0.37-0.375 0.655c0.005 0.017 0.010 0.033 0.016 0.049 0.17 0.525 0.367 1.042 0.591 1.547 0.086 0.193 0.277 0.317 0.488 0.317 0.295-0 0.533-0.239 0.533-0.534z"></path>
      <path fill="#ffbdbd" style="fill: var(--color3, #ffbdbd)" d="M0.981 19.748c0 0 0-0 0-0 0.288-0.061 0.472-0.344 0.411-0.632-0.106-0.504-0.187-1.013-0.241-1.525-0.031-0.293-0.294-0.505-0.587-0.474s-0.505 0.294-0.474 0.587c0.058 0.548 0.145 1.094 0.259 1.633 0.061 0.288 0.344 0.472 0.632 0.411z"></path>
      <path fill="#ffbdbd" style="fill: var(--color3, #ffbdbd)" d="M31.147 19.203c-0-0-0-0-0.001-0-0.286-0.071-0.575 0.103-0.646 0.389-0.124 0.5-0.273 0.993-0.447 1.478-0.1 0.277 0.044 0.583 0.321 0.683s0.583-0.044 0.683-0.321c0.187-0.519 0.347-1.047 0.48-1.583 0.071-0.286-0.104-0.575-0.39-0.646z"></path>
      <path fill="#ffbdbd" style="fill: var(--color3, #ffbdbd)" d="M14.214 30.827c-0.511-0.061-1.019-0.148-1.521-0.261-0.287-0.065-0.573 0.115-0.638 0.403s0.115 0.573 0.403 0.638c0.538 0.121 1.082 0.215 1.63 0.28 0.021 0.003 0.043 0.004 0.064 0.004 0.295-0.001 0.533-0.24 0.532-0.534-0.001-0.27-0.202-0.497-0.47-0.528z"></path>
      <path fill="#ffbdbd" style="fill: var(--color3, #ffbdbd)" d="M30.164 22.245c-0.265-0.128-0.584-0.017-0.712 0.248-0.224 0.464-0.472 0.915-0.743 1.353-0.151 0.253-0.068 0.58 0.185 0.731 0.247 0.147 0.566 0.072 0.721-0.17 0.29-0.469 0.556-0.953 0.796-1.45 0.128-0.265 0.018-0.584-0.247-0.713z"></path>
      <path fill="#ffbdbd" style="fill: var(--color3, #ffbdbd)" d="M28.588 25.019c-0.231-0.183-0.566-0.145-0.749 0.086-0.003 0.004-0.006 0.008-0.009 0.012v-0.001c-0.315 0.408-0.65 0.8-1.005 1.173-0.203 0.214-0.195 0.551 0.019 0.754s0.551 0.195 0.754-0.019c0.38-0.4 0.739-0.819 1.076-1.256 0.183-0.231 0.145-0.566-0.085-0.749z"></path>
      <path fill="#ffbdbd" style="fill: var(--color3, #ffbdbd)" d="M31.476 16.026c-0.29-0.015-0.537 0.208-0.551 0.498-0 0.005-0 0.011-0.001 0.016-0.018 0.515-0.063 1.028-0.134 1.538-0.040 0.291 0.163 0.56 0.454 0.601 0.025 0.004 0.050 0.005 0.075 0.005 0.266-0 0.491-0.196 0.527-0.46 0.076-0.546 0.124-1.096 0.143-1.647 0.010-0.294-0.22-0.541-0.514-0.551z"></path>
      <path fill="#ffbdbd" style="fill: var(--color3, #ffbdbd)" d="M25.707 27.35v0.002c-0.393 0.335-0.802 0.65-1.227 0.943-0.243 0.168-0.304 0.501-0.136 0.744s0.501 0.304 0.744 0.136c0.454-0.315 0.892-0.654 1.312-1.013 0.224-0.191 0.25-0.528 0.059-0.752s-0.528-0.25-0.752-0.059z"></path>
      <path fill="#ffbdbd" style="fill: var(--color3, #ffbdbd)" d="M20.326 30.298c-0.493 0.149-0.993 0.271-1.499 0.368-0.289 0.056-0.479 0.335-0.423 0.624 0.048 0.251 0.267 0.432 0.523 0.433 0.034 0 0.068-0.003 0.101-0.009 0.542-0.104 1.078-0.235 1.606-0.395 0.28-0.092 0.432-0.394 0.34-0.673-0.089-0.27-0.374-0.423-0.648-0.347z"></path>
      <path fill="#ffbdbd" style="fill: var(--color3, #ffbdbd)" d="M17.326 30.875c-0.010 0.001-0.020 0.001-0.029 0.002l0.003 0.002c-0.427 0.036-0.863 0.053-1.299 0.053h-0.244c-0.291 0.004-0.529 0.233-0.543 0.524-0.005 0.295 0.229 0.538 0.524 0.543 0 0 0 0 0 0h0.263c0.466 0 0.933-0.021 1.387-0.060 0.294-0.017 0.519-0.269 0.502-0.563s-0.269-0.519-0.563-0.502z"></path>
      <path fill="#ffbdbd" style="fill: var(--color3, #ffbdbd)" d="M23.168 29.104h0.001c-0.452 0.247-0.915 0.471-1.39 0.671-0.273 0.111-0.404 0.422-0.294 0.695s0.422 0.404 0.695 0.294c0.004-0.002 0.008-0.003 0.012-0.005 0.508-0.214 1.005-0.454 1.489-0.719 0.258-0.142 0.353-0.466 0.211-0.724s-0.466-0.353-0.724-0.211z"></path>
      <path fill="#ffbdbd" style="fill: var(--color3, #ffbdbd)" d="M16 4.801c-6.185 0-11.2 5.014-11.2 11.2s5.014 11.2 11.2 11.2c6.185 0 11.2-5.014 11.2-11.2-0.007-6.183-5.017-11.193-11.2-11.2zM24.533 16.534h1.573c-0.277 5.168-4.405 9.296-9.573 9.573v-1.573c0-0.295-0.239-0.533-0.533-0.533s-0.533 0.239-0.533 0.533v1.573c-5.168-0.277-9.296-4.405-9.573-9.573h1.573c0.295 0 0.533-0.239 0.533-0.533s-0.239-0.533-0.533-0.533h-1.573c0.277-5.168 4.405-9.296 9.573-9.573v1.573c0 0.295 0.239 0.533 0.533 0.533s0.533-0.239 0.533-0.533v-1.573c5.168 0.277 9.296 4.405 9.573 9.573h-1.573c-0.295 0-0.533 0.239-0.533 0.533s0.239 0.533 0.533 0.533z"></path>
      <path fill="#ffbdbd" style="fill: var(--color3, #ffbdbd)" d="M16.534 14.499v-4.898c0-0.295-0.239-0.533-0.533-0.533s-0.533 0.239-0.533 0.533v4.898c-0.452 0.161-0.807 0.517-0.968 0.969h-2.765c-0.295 0-0.533 0.239-0.533 0.533s0.239 0.533 0.533 0.533h2.765c0.292 0.832 1.203 1.269 2.035 0.977s1.269-1.203 0.977-2.035c-0.161-0.457-0.52-0.816-0.977-0.977zM16 16.534c-0.295 0-0.533-0.239-0.533-0.533s0.239-0.533 0.533-0.533c0.295 0 0.533 0.239 0.533 0.533s-0.239 0.533-0.533 0.533z"></path>
    </symbol>
    <symbol id="icon-404" viewBox="0 0 70 32">
      <path fill="#89c0c0" style="fill: var(--color2, #89c0c0)" d="M22.559 21.376l-0.236 1.819-3.864-0.048h-0.801l0.094 8.423-0.188 0.239-1.838 0.191-0.188-0.239 0.094-8.614h-9.471l-2.544 0.048-0.236-0.287v-1.675l12.062-17.611h2.262l-0.047 17.467h4.665l0.236 0.287zM15.633 21.089v-14.117h-0.283l-9.659 14.117h9.942z"></path>
      <path fill="#89c0c0" style="fill: var(--color2, #89c0c0)" d="M36.823 3.382c3.204 0 5.67 1.053 7.398 3.159 1.727 2.074 2.591 5.041 2.591 8.901 0 3.892-0.895 6.891-2.686 8.997-1.759 2.074-4.288 3.111-7.586 3.111-3.204 0-5.67-1.021-7.398-3.063s-2.591-4.945-2.591-8.71c0-3.988 0.88-7.051 2.639-9.188 1.79-2.138 4.335-3.206 7.633-3.206zM36.635 5.679c-2.607 0-4.618 0.845-6.031 2.536-1.382 1.691-2.073 4.148-2.073 7.37 0 3.19 0.691 5.615 2.073 7.274 1.413 1.659 3.455 2.488 6.125 2.488 2.607 0 4.602-0.814 5.984-2.441 1.382-1.659 2.073-4.052 2.073-7.178 0-3.286-0.707-5.775-2.12-7.466-1.382-1.723-3.393-2.584-6.031-2.584z"></path>
      <path fill="#89c0c0" style="fill: var(--color2, #89c0c0)" d="M69.724 21.376l-0.236 1.819-3.864-0.048h-0.801l0.094 8.423-0.189 0.239-1.838 0.191-0.189-0.239 0.094-8.614h-9.471l-2.544 0.048-0.235-0.287v-1.675l12.062-17.611h2.262l-0.047 17.467h4.665l0.236 0.287zM62.797 21.089v-14.117h-0.283l-9.659 14.117h9.942z"></path>
      <path fill="#fff" style="fill: var(--color1, #fff); stroke: var(--color3, #ffbdbd)" stroke="#ffbdbd" stroke-linejoin="miter" stroke-linecap="butt" stroke-miterlimit="4" stroke-width="0.7805" d="M20.345 18.824l0.022-0.167-0.46-0.56h-4.458l0.046-17.076 0.001-0.391h-2.859l-12.247 17.88v1.935l0.444 0.541 2.73-0.051h9.073l-0.090 8.22-0.002 0.138 0.085 0.108 0.322 0.408 2.216-0.231 0.376-0.477-0.002-0.138-0.090-8.028h0.406l4.206 0.052 0.28-2.163zM26.289 3.736v0l-0.002 0.003c-1.837 2.232-2.728 5.397-2.728 9.436 0 3.82 0.876 6.826 2.684 8.962 1.817 2.147 4.402 3.201 7.696 3.201 3.386 0 6.034-1.069 7.883-3.248 1.871-2.2 2.779-5.302 2.779-9.25 0-3.912-0.875-6.981-2.681-9.15-1.815-2.212-4.401-3.3-7.698-3.3-3.39 0-6.054 1.103-7.932 3.346zM39.76 5.906l0.002 0.003 0.003 0.003c1.332 1.593 2.030 3.977 2.030 7.215 0 3.074-0.68 5.364-1.982 6.927-1.292 1.52-3.166 2.301-5.685 2.301-2.583 0-4.504-0.798-5.827-2.35-1.301-1.562-1.981-3.882-1.981-7.023 0-3.173 0.681-5.526 1.984-7.121 1.326-1.585 3.216-2.395 5.73-2.395 2.546 0 4.433 0.826 5.727 2.438zM67.509 18.824l0.022-0.167-0.46-0.56h-4.458l0.046-17.076 0.001-0.391h-2.859l-12.247 17.88v1.935l0.088 0.108 0.356 0.433 2.73-0.051h9.073l-0.090 8.22-0.002 0.138 0.407 0.516 2.216-0.231 0.102-0.13 0.274-0.347-0.002-0.138-0.090-8.028h0.406l4.206 0.052 0.044-0.344 0.236-1.819zM3.829 18.097l8.812-12.879v12.879h-8.812zM50.993 18.097l8.812-12.879v12.879h-8.812z"></path>
    </symbol>
    <symbol id="icon-Vector-1" viewBox="0 0 56 32">
      <path fill="#ffbdbd" style="fill: var(--color3, #ffbdbd)" d="M55.054 22.947c-0.991-1.889-2.047-3.775-3.144-5.616 0.226-0.205 0.451-0.412 0.679-0.616 0.504-0.45 0.809-1.070 0.856-1.746 0.051-0.715-0.187-1.426-0.67-2.002-1.738-2.077-5.577-5.788-11.928-7.607 0.083-1.066-0.521-2.127-1.563-2.671-3.361-1.76-7.259-2.689-11.274-2.689-0.009 0-0.019 0-0.028 0-4.010 0-7.906 0.93-11.266 2.689-1.043 0.544-1.648 1.606-1.564 2.671-6.351 1.818-10.19 5.53-11.928 7.606-0.482 0.576-0.72 1.287-0.67 2.002 0.048 0.677 0.352 1.297 0.855 1.746 0.228 0.204 0.453 0.41 0.68 0.616-1.097 1.842-2.153 3.727-3.144 5.616-0.939 1.789-1.189 3.844-0.702 5.796 0.376 1.445 1.365 2.547 2.713 3.022 0.447 0.158 0.91 0.235 1.373 0.235 0.946 0 1.887-0.324 2.673-0.947 2.009-1.59 4.109-3.113 6.248-4.535 0.406 0.245 0.869 0.373 1.338 0.373 0.366-0 0.736-0.078 1.088-0.237 1.375-0.626 2.781-1.221 4.186-1.776 0.511 0.432 1.176 0.672 1.878 0.623 0-0 0.001-0 0.002-0 4.152-0.297 8.364-0.297 12.52 0 0.062 0.004 0.123 0.006 0.184 0.006 0.635 0 1.23-0.233 1.697-0.629 1.404 0.555 2.809 1.15 4.183 1.775 0.351 0.16 0.722 0.238 1.088 0.238 0.47 0 0.932-0.128 1.338-0.374 2.139 1.422 4.239 2.944 6.248 4.535 0.786 0.622 1.727 0.947 2.673 0.947 0.462 0 0.925-0.077 1.372-0.235 1.348-0.475 2.336-1.577 2.715-3.032 0.485-1.942 0.235-3.997-0.704-5.786zM5.901 29.557c-0.699 0.553-1.56 0.709-2.361 0.426-0.766-0.27-1.329-0.901-1.543-1.721-0.369-1.478-0.176-3.046 0.542-4.415 0.924-1.763 1.907-3.522 2.927-5.245 2.236 2.102 4.389 4.305 6.432 6.58-2.052 1.378-4.065 2.846-5.997 4.375zM14.946 24.931c-0.342 0.156-0.735 0.076-0.976-0.198-0.005-0.006-0.010-0.011-0.015-0.017-0-0-0.001-0.001-0.001-0.001-2.526-2.871-5.23-5.636-8.056-8.242-0.007-0.007-0.015-0.014-0.022-0.021-0.425-0.392-0.854-0.781-1.284-1.166-0.137-0.122-0.216-0.28-0.229-0.456-0.015-0.212 0.067-0.435 0.23-0.63 1.594-1.905 5.112-5.305 10.95-7.001 1.214 5.309 2.35 10.694 3.381 16.034-1.336 0.534-2.671 1.101-3.979 1.696zM35.281 22.938c-0.082 0.422-0.468 0.718-0.897 0.686-2.119-0.151-4.253-0.227-6.386-0.227s-4.265 0.076-6.382 0.227c-0.437 0.028-0.814-0.259-0.898-0.684-1.134-5.88-2.395-11.818-3.748-17.65-0.078-0.334 0.147-0.703 0.561-0.919 3.11-1.628 6.723-2.488 10.451-2.488 0.009 0 0.018 0 0.027 0 3.733 0 7.349 0.86 10.459 2.488 0.413 0.216 0.638 0.585 0.56 0.92-1.353 5.831-2.614 11.769-3.747 17.647zM42.030 24.732c-0.242 0.274-0.634 0.354-0.977 0.198-1.308-0.595-2.643-1.163-3.979-1.696 1.030-5.339 2.167-10.725 3.381-16.034 5.838 1.696 9.356 5.095 10.951 7.001 0.163 0.195 0.245 0.419 0.23 0.63-0.012 0.176-0.091 0.333-0.229 0.456-0.432 0.385-0.861 0.775-1.287 1.168-0.006 0.006-0.012 0.011-0.018 0.017-2.832 2.611-5.542 5.383-8.072 8.26zM54.005 28.252c-0.216 0.83-0.779 1.461-1.545 1.731-0.801 0.283-1.662 0.128-2.361-0.426-1.931-1.529-3.945-2.998-5.996-4.375 2.042-2.274 4.196-4.477 6.432-6.58 1.020 1.723 2.003 3.482 2.927 5.245 0.718 1.369 0.91 2.936 0.544 4.405z"></path>
    </symbol>
    <symbol id="icon-Macaroni-icon" viewBox="0 0 57 32">
      <path fill="#89c0c0" style="fill: var(--color2, #89c0c0)" d="M36.878 26.16c-0.478 1.151-1.304 2.119-2.361 2.765-1.63 0.928-3.481 1.384-5.35 1.318h-18.876c-2.329 0-4.452-0.562-5.961-1.769-0.736-0.591-1.323-1.349-1.714-2.213s-0.575-1.809-0.537-2.758v-0.829c-1.117-0.147-2.078-0.663-2.078-2.124 0-1.696 1.057-2.276 2.083-2.474-0.002-0.906 0.199-1.8 0.588-2.615s0.956-1.531 1.658-2.094c1.508-1.207 3.646-1.769 5.961-1.769h12.76c-0.228-0.974-0.212-1.991 0.049-2.956s0.756-1.85 1.442-2.573l0.574-0.65c-0.729-0.866-1.112-1.903-0.15-2.99 1.112-1.267 2.279-0.991 3.19-0.461 0.633-0.705 1.422-1.248 2.304-1.583s1.829-0.453 2.764-0.344c1.823 0.203 3.646 1.184 5.291 2.659l14.1 12.689c1.645 1.479 2.821 3.225 3.227 5.004 0.222 0.943 0.214 1.926-0.025 2.864s-0.699 1.804-1.343 2.522c0.161 0.244 0.27 0.519 0.32 0.808s0.041 0.585-0.028 0.87c-0.076 0.32-0.221 0.618-0.423 0.875-0.303 0.38-0.726 0.641-1.198 0.74s-0.964 0.030-1.391-0.197l-0.807 0.921c-0.628 0.778-1.438 1.384-2.358 1.763s-1.919 0.517-2.905 0.403c-1.823-0.198-3.646-1.18-5.296-2.654l-3.491-3.142-0.018-0.005zM26.227 6.527l-0.51 0.581c-0.521 0.538-0.901 1.199-1.105 1.923s-0.225 1.489-0.062 2.224c0.333 1.456 1.326 2.898 2.734 4.147l14.128 12.712c1.413 1.267 2.953 2.106 4.425 2.272 0.742 0.079 1.492-0.031 2.181-0.32s1.296-0.748 1.765-1.334l0.711-0.806c-0.249-0.211-0.548-0.353-0.868-0.41s-0.649-0.029-0.955 0.083c-0.482 0.117-0.987 0.089-1.454-0.078-0.478-0.178-0.908-0.469-1.253-0.848-0.294-0.308-0.521-0.676-0.667-1.078s-0.207-0.831-0.18-1.258c0.023-0.304-0.031-0.609-0.157-0.887s-0.32-0.518-0.563-0.698c-0.608-0.463-1.349-0.714-2.11-0.714-0.775-0.069-1.472-0.138-2.124-0.71-0.25-0.221-0.457-0.486-0.611-0.783-0.18-0.343-0.319-0.707-0.415-1.083-0.551-2.101-1.135-2.152-1.891-2.212-1.109-0.009-2.174-0.439-2.985-1.203-0.911-0.82-1.148-1.88-1.367-2.857-0.41-1.645-0.994-1.668-1.732-1.668-0.553 0.046-1.109-0.021-1.635-0.196s-1.014-0.455-1.432-0.822c-0.952-0.839-1.030-1.843-1.094-2.691 0.011-0.256-0.027-0.511-0.114-0.751l-0.036-0.037c-0.082-0.074-0.21-0.175-0.355-0.295l-0.251-0.203h-0.018zM29.367 2.979c8.057 7.105 16.005 14.482 23.976 21.702 0.463-0.531 0.795-1.165 0.966-1.851s0.18-1.403 0.023-2.093c-0.329-1.456-1.326-2.898-2.735-4.147-4.706-4.254-9.418-8.501-14.137-12.74-1.408-1.258-2.935-2.092-4.402-2.253-0.679-0.076-1.367 0.009-2.008 0.249s-1.217 0.628-1.684 1.133zM51.953 27.151l0.059 0.051c0.378 0.336 0.693 0.396 0.911 0.304 0.076-0.035 0.142-0.087 0.196-0.152 0.055-0.068 0.096-0.148 0.118-0.233s0.027-0.175 0.013-0.262c-0.014-0.087-0.047-0.17-0.095-0.244s-0.112-0.136-0.186-0.183c-2.105-1.861-24.714-22.283-24.714-22.356-0.428-0.387-1.463-1.345-2.142-0.576-0.355 0.405 0.187 1.009 0.729 1.502 0.223 0.198 0.428 0.364 0.606 0.511s0.278 0.226 0.41 0.341l0.046 0.041c0.538 0.488 0.583 1.106 0.638 1.806-0.017 0.296 0.024 0.592 0.122 0.871s0.25 0.536 0.447 0.755c0.576 0.48 1.317 0.71 2.060 0.64 1.417 0 2.552 0.023 3.19 2.871 0.164 0.742 0.342 1.544 0.889 2.032 0.569 0.514 1.306 0.798 2.069 0.797 1.367 0.111 2.438 0.198 3.272 3.373 0.060 0.255 0.152 0.501 0.273 0.733 0.068 0.132 0.159 0.251 0.269 0.35 0.377 0.232 0.812 0.349 1.253 0.336 1.082 0.003 2.129 0.382 2.967 1.074 0.424 0.309 0.764 0.723 0.986 1.202s0.321 1.007 0.285 1.535c-0.018 0.24 0.013 0.482 0.092 0.709s0.202 0.436 0.364 0.613c0.172 0.205 0.391 0.363 0.638 0.461 0.185 0.068 0.386 0.081 0.579 0.037 1.882-0.461 2.552 0.092 3.605 1.018l0.046 0.037 0.005 0.005zM23.598 13.185h-13.307c-2.001 0-3.787 0.461-5.013 1.424-0.498 0.407-0.902 0.918-1.184 1.499s-0.435 1.217-0.448 1.864l24.217 0.074-1.59-1.433c-1.102-0.956-2.009-2.121-2.671-3.428h-0.005zM29.622 19.613c-8.691-0.023-17.381-0.078-26.068-0.078-0.588 0-1.987 0-1.987 1.014-0.018 0.544 0.788 0.65 1.513 0.65 0.324 0 0.574 0 0.793-0.023s0.406 0 0.588 0c0.725 0 1.167 0.433 1.668 0.922 0.401 0.392 0.866 0.843 1.495 0.834 0.748-0.033 1.453-0.364 1.96-0.921 1.066-0.945 1.923-1.7 4.27 0 0.606 0.461 1.271 0.922 1.996 0.922 0.771 0 1.515-0.289 2.087-0.811 1.098-0.839 1.95-1.488 4.662 0.323 0.203 0.142 0.422 0.259 0.652 0.35h0.032c0.138 0.054 0.285 0.083 0.433 0.088 0.44-0.084 0.846-0.293 1.171-0.604 0.81-0.717 1.837-1.135 2.912-1.184 0.518-0.052 1.041 0.029 1.519 0.237s0.896 0.535 1.215 0.952c0.217 0.293 0.52 0.51 0.866 0.62s0.717 0.107 1.061-0.007h0.050c0.146-0.060 0.277-0.153 0.383-0.272l-3.272-3.009zM34.093 23.64c-0.262 0.299-0.59 0.533-0.957 0.682h-0.068c-0.453 0.167-0.937 0.23-1.417 0.184-0.427-0.028-0.844-0.148-1.223-0.35s-0.71-0.484-0.974-0.825c-0.183-0.243-0.425-0.434-0.701-0.557s-0.58-0.172-0.88-0.144c-0.759 0.061-1.478 0.372-2.046 0.885-0.629 0.461-1.199 0.922-2.074 0.922-0.328 0.003-0.655-0.050-0.966-0.157h-0.041c-0.347-0.132-0.678-0.305-0.984-0.516-1.796-1.198-2.279-0.843-2.871-0.378-0.833 0.737-1.91 1.132-3.017 1.106-1.221 0-2.096-0.631-2.898-1.212-1.367-0.981-1.796-0.59-2.347-0.101-0.383 0.406-0.844 0.73-1.353 0.954s-1.058 0.341-1.614 0.346c-1.262 0-1.973-0.677-2.584-1.272-0.264-0.258-0.497-0.484-0.597-0.484s-0.301 0-0.51 0h-0.319v0.779c-0.033 0.711 0.101 1.419 0.389 2.068s0.723 1.221 1.27 1.668c1.217 0.972 3.003 1.424 5.013 1.424h18.844c1.581 0.061 3.148-0.318 4.53-1.097 0.94-0.567 1.632-1.475 1.932-2.539l-1.554-1.382 0.018-0.005z"></path>
    </symbol>
    <symbol id="icon-Apple-Pie" viewBox="0 0 56 32">
      <path fill="#ffbdbd" style="fill: var(--color3, #ffbdbd)" d="M52.506 23.852l-3.613 7.549c-0.087 0.184-0.228 0.332-0.392 0.433-0.155 0.096-0.333 0.153-0.519 0.162-0.018 0.004-0.036 0.004-0.055 0.004h-40.012c-0.232 0-0.451-0.074-0.629-0.197-0.182-0.127-0.319-0.306-0.387-0.516l-3.117-7.436-0.191-0.009c-1.057-0.066-1.955-0.542-2.593-1.246-0.629-0.699-0.998-1.631-0.998-2.605 0-0.079 0.005-0.166 0.009-0.258 0.036-0.538 0.123-1.027 0.255-1.469 0.346-1.176 1.007-2.015 1.868-2.544 0.852-0.529 1.896-0.743 3.017-0.678 0.424 0.026 0.857 0.092 1.294 0.197 1.44-3.235 3.276-5.954 5.395-8.157 2.292-2.391 4.912-4.179 7.696-5.359 1.308-0.555 2.652-0.975 4.014-1.263 1.372-0.288 2.77-0.442 4.178-0.459 1.399-0.018 2.802 0.101 4.192 0.35 1.381 0.249 2.748 0.634 4.083 1.154 2.939 1.137 5.737 2.92 8.22 5.342 2.292 2.234 4.315 5.014 5.933 8.341 0.934-0.254 1.905-0.332 2.798-0.109 0.839 0.205 1.599 0.678 2.183 1.504 0.738 1.040 1.003 2.5 0.797 3.86-0.196 1.307-0.825 2.531-1.882 3.23-0.091 0.061-0.187 0.105-0.287 0.136-0.086 0.026-0.173 0.039-0.264 0.044-0.018 0.004-0.037 0.004-0.055 0.004h-0.939v-0.004zM48.023 15.94c-1.499-3.038-2.954-5.573-5.041-7.602-2.256-2.194-5.18-4.203-7.827-5.226-1.198-0.463-2.424-0.809-3.659-1.036-1.244-0.227-2.502-0.332-3.746-0.315s-2.488 0.153-3.718 0.415c-1.221 0.258-2.424 0.634-3.591 1.132-2.479 1.054-5.216 3.040-7.276 5.169-1.905 1.967-3.172 4.393-4.498 7.283l0.219 0.118 0.447 0.249c0.72 0.411 1.444 0.817 2.151 0.927 0.679 0.105 1.381-0.070 2.123-0.791 0.469-0.455 0.939-0.826 1.444-1.088 0.519-0.267 1.075-0.42 1.7-0.433 0.579-0.009 1.194 0.109 1.864 0.389 0.652 0.271 1.367 0.686 2.164 1.281 0.228 0.171 0.506 0.306 0.807 0.402 0.314 0.101 0.656 0.162 0.998 0.175 0.319 0.013 0.629-0.017 0.907-0.087 0.251-0.066 0.478-0.162 0.661-0.302 0.324-0.245 0.652-0.481 0.984-0.695 0.337-0.219 0.684-0.42 1.043-0.59 0.387-0.184 0.788-0.332 1.198-0.428 0.415-0.096 0.838-0.144 1.28-0.122 1.891 0.087 2.647 0.909 3.367 1.714 0.014 0.013 0.027 0.026 0.041 0.044 0.392 0.437 0.779 0.857 1.568 0.857 1.112 0.004 1.8-0.612 2.451-1.189l0.005-0.004c0.775-0.686 1.513-1.342 2.597-1.526 1.071-0.179 2.442 0.114 4.443 1.333 1.331 0.809 2.287 0.988 3.048 0.866 0.729-0.118 1.303-0.525 1.845-0.918zM22.259 5.479c0.201-0.205 0.469-0.315 0.743-0.323s0.551 0.083 0.765 0.271c0.214 0.192 0.328 0.45 0.337 0.713s-0.087 0.529-0.283 0.734l-2.916 3.008c-0.201 0.205-0.469 0.315-0.743 0.323s-0.551-0.079-0.765-0.271c-0.214-0.192-0.328-0.45-0.337-0.713s0.082-0.529 0.282-0.734l2.916-3.008zM32.826 6.873c-0.2-0.205-0.296-0.472-0.282-0.734 0.009-0.262 0.123-0.52 0.337-0.713s0.492-0.284 0.766-0.271c0.273 0.009 0.542 0.118 0.743 0.323l2.916 3.008c0.2 0.205 0.296 0.472 0.282 0.734-0.009 0.262-0.123 0.52-0.337 0.713s-0.492 0.284-0.766 0.271c-0.273-0.009-0.542-0.118-0.743-0.323l-2.916-3.008zM27.158 6.869v-0.031c0.009-0.271 0.128-0.516 0.319-0.691 0.191-0.184 0.46-0.293 0.752-0.293h0.032c0.282 0.009 0.538 0.122 0.72 0.302 0.191 0.188 0.31 0.442 0.305 0.721l-0.036 3.563c-0.009 0.271-0.132 0.516-0.319 0.691-0.191 0.184-0.46 0.293-0.752 0.293h-0.032c-0.282-0.009-0.538-0.122-0.72-0.302-0.191-0.188-0.31-0.441-0.305-0.721l0.036-3.532zM49.33 17.706c-0.82 0.599-1.695 1.202-2.871 1.377s-2.62-0.092-4.538-1.259c-2.575-1.569-3.395-0.852-4.288-0.057l-0.023 0.017c-0.469 0.42-0.957 0.852-1.577 1.185-0.633 0.341-1.399 0.573-2.397 0.568-0.916 0-1.563-0.205-2.073-0.516-0.506-0.31-0.861-0.704-1.221-1.102l-0.027-0.035c-0.21-0.232-0.419-0.463-0.683-0.634-0.269-0.175-0.606-0.302-1.075-0.323-0.223-0.009-0.447 0.017-0.67 0.070-0.232 0.057-0.465 0.149-0.702 0.258-0.269 0.127-0.533 0.284-0.802 0.459-0.273 0.179-0.551 0.38-0.829 0.59-0.406 0.306-0.875 0.525-1.385 0.66-0.529 0.144-1.098 0.205-1.668 0.184-0.565-0.022-1.139-0.122-1.672-0.302-0.519-0.171-1.012-0.415-1.426-0.726-0.597-0.442-1.103-0.756-1.545-0.953-0.419-0.188-0.765-0.271-1.071-0.267-0.255 0.004-0.501 0.083-0.752 0.227-0.269 0.153-0.538 0.376-0.82 0.651-0.478 0.463-0.943 0.809-1.394 1.058-0.456 0.249-0.898 0.393-1.331 0.463-0.861 0.175-1.677 0.048-2.465-0.232-0.766-0.271-1.499-0.686-2.233-1.097-0.925-0.52-1.9-1.252-2.784-1.305-0.51-0.031-0.989 0.031-1.399 0.21-0.401 0.175-0.743 0.459-0.998 0.87-0.26 0.424-0.828 1.388-0.878 2.114-0.036 0.564 0.105 1.018 0.392 1.342 0.292 0.328 1.138 0.933 1.717 0.999h49.207c0.456-0.455 1.12-1.558 1.193-2.297 0.077-0.8-0.078-2.022-0.479-2.586-0.369-0.52-1.311-0.326-1.903-0.339-0.829-0.013-1.773 0.328-2.529 0.726zM50.5 23.983h-44.767l2.502 6.367h39.413l2.852-6.367z"></path>
    </symbol>
    <symbol id="icon-Group" viewBox="0 0 34 32">
      <path fill="#89c0c0" style="fill: var(--color2, #89c0c0)" d="M32.639 14.79c0.313-0.868 0.346-1.711 0.096-2.514-0.281-0.904-0.871-1.567-1.372-1.996 0.548-0.558 0.836-1.334 0.78-2.115 0.921-0.448 1.541-1.398 1.541-2.455s-0.62-2.007-1.541-2.455c0.073-1.022-0.44-2.034-1.355-2.562s-2.048-0.466-2.896 0.108c-0.848-0.574-1.981-0.636-2.896-0.108s-1.428 1.541-1.355 2.562c-0.084 0.041-0.164 0.087-0.243 0.136-1.715-2.645-3.592-2.998-4.606-2.957-1.475 0.060-2.876 1.001-3.486 2.344-0.406 0.894-1.074 1.269-1.563 1.425-0.756 0.242-1.62 0.149-2.312-0.251-0.753-0.434-1.647-0.891-2.572-0.981-0.897-0.087-1.701 0.183-2.396 0.801-0.252-0.058-0.465-0.017-0.601 0.029-0.718 0.244-1.143 1.21-1.481 2.58-0.268-1.039-0.535-1.892-0.753-2.525-0.101-0.293-0.174-0.534-0.233-0.729-0.156-0.517-0.28-0.926-0.731-1.053s-0.769 0.155-1.17 0.513c-0.049 0.043-0.101 0.090-0.158 0.14l-1.112 0.98c-0.21 0.185-0.28 0.483-0.174 0.743 0.869 2.126 1.879 8.012 2.222 10.113h-0.314c-1.079 0-1.957 0.878-1.957 1.957v2.665c0 0.498 0.187 0.953 0.495 1.299-0.308 0.346-0.495 0.801-0.495 1.299v2.665c0 0.498 0.187 0.953 0.495 1.299-0.308 0.346-0.495 0.801-0.495 1.299v2.665c0 1.079 0.878 1.957 1.957 1.957h29.771c1.079 0 1.957-0.878 1.957-1.957v-2.665c0-0.498-0.187-0.953-0.495-1.299 0.308-0.346 0.495-0.801 0.495-1.299v-2.665c0-0.498-0.187-0.953-0.495-1.299 0.308-0.346 0.495-0.801 0.495-1.299v-2.665c0-0.75-0.424-1.403-1.046-1.731zM31.478 12.667c0.181 0.582 0.125 1.219-0.164 1.897h-3.414c0.026-0.044 0.051-0.088 0.077-0.132 0.776-1.343 1.223-2.421 1.377-3.341 0.024 0.001 0.048 0.001 0.072 0.001 0.24 0 0.479-0.032 0.711-0.095 0.364 0.245 1.077 0.817 1.342 1.67zM24.527 4.331c0.182-0.039 0.339-0.153 0.432-0.314s0.114-0.354 0.056-0.531c-0.203-0.627 0.065-1.323 0.638-1.653s1.308-0.215 1.75 0.274c0.125 0.138 0.302 0.217 0.488 0.217s0.363-0.079 0.488-0.217c0.442-0.489 1.178-0.605 1.75-0.274s0.84 1.026 0.638 1.653c-0.057 0.177-0.037 0.37 0.056 0.531s0.25 0.275 0.432 0.314c0.645 0.138 1.113 0.718 1.113 1.379s-0.468 1.24-1.113 1.379c-0.182 0.039-0.339 0.153-0.432 0.314s-0.114 0.354-0.056 0.531c0.203 0.627-0.065 1.323-0.638 1.653-0.236 0.136-0.503 0.199-0.769 0.187-0.138-0.758-0.53-1.338-1.008-1.795 0.332-0.407 0.783-0.814 1.206-0.99 0.335-0.14 0.493-0.525 0.353-0.861s-0.525-0.493-0.861-0.353c-0.671 0.28-1.302 0.848-1.756 1.417-0.065-0.039-0.13-0.078-0.193-0.114-0.066-0.038-0.131-0.075-0.196-0.11 0.266-0.677 0.443-1.508 0.35-2.23-0.046-0.36-0.376-0.615-0.736-0.569s-0.615 0.376-0.569 0.736c0.058 0.455-0.069 1.050-0.256 1.542-0.358-0.106-0.697-0.157-1.027-0.157-0.356 0-0.698 0.058-1.032 0.177-0.143-0.224-0.222-0.486-0.222-0.757 0-0.661 0.468-1.241 1.113-1.379zM23.674 9.633c0.227 0 0.449-0.118 0.57-0.329 0.182-0.315 0.074-0.717-0.241-0.899l-0.571-0.329c0.111-0.086 0.217-0.157 0.319-0.215 0.018-0.008 0.035-0.018 0.052-0.028 0.335-0.181 0.619-0.226 0.864-0.226 0.49 0 1.054 0.194 1.776 0.611 1.046 0.604 1.534 1.161 1.634 1.865 0.080 0.563-0.080 1.298-0.486 2.224l-1.008-0.582c-0.315-0.182-0.717-0.074-0.899 0.241s-0.074 0.717 0.241 0.899l1.075 0.621c-0.053 0.095-0.107 0.191-0.164 0.289-0.154 0.267-0.309 0.531-0.464 0.79h-6.997c0.264-0.563 0.555-1.149 0.871-1.752l0.744 0.429c0.104 0.060 0.217 0.088 0.328 0.088 0.227 0 0.449-0.118 0.57-0.329 0.182-0.315 0.074-0.717-0.241-0.899l-0.778-0.449c0.182-0.328 0.369-0.66 0.564-0.998 0.386-0.668 0.737-1.192 1.057-1.603l0.854 0.493c0.104 0.060 0.217 0.088 0.328 0.088zM9.661 13.182c0-2.854 2.322-5.176 5.176-5.176 2.099 0 3.985 1.272 4.781 3.193-0.068 0.124-0.136 0.248-0.202 0.371-0 0-0 0.001-0.001 0.001s-0.001 0.002-0.002 0.003c-0.565 1.049-1.062 2.048-1.485 2.989l-8.082-0c-0.124-0.448-0.187-0.911-0.187-1.382zM10.067 6.173c-0.728-0.395-1.418-0.455-1.976-0.391 0.016-0.042 0.032-0.083 0.048-0.123 0.105-0.256 0.038-0.55-0.167-0.736l-0.393-0.357c0.767-0.515 1.686-0.343 3.193 0.527 0.638 0.368 1.377 0.558 2.113 0.558 0.427 0 0.853-0.064 1.258-0.194 1.049-0.336 1.886-1.094 2.359-2.134 0.33-0.726 1.203-1.527 2.341-1.573 1.283-0.052 2.557 0.875 3.613 2.619-0.228 0.4-0.358 0.859-0.358 1.342 0 0.508 0.142 0.999 0.403 1.424-0.214 0.177-0.427 0.383-0.64 0.62-0.007 0.008-0.015 0.016-0.022 0.024-0.473 0.529-0.949 1.207-1.445 2.049-0.645-1.067-1.581-1.918-2.682-2.463 0.122-0.436 0.351-1.096 0.739-1.694 0.198-0.305 0.111-0.712-0.194-0.91s-0.712-0.111-0.91 0.194c-0.444 0.684-0.715 1.421-0.871 1.948-0.528-0.138-1.078-0.212-1.64-0.212-3.579 0-6.491 2.912-6.491 6.491 0 0.468 0.051 0.93 0.149 1.382h-1.046c-0.051-1.415-0.123-4.942 0.288-7.359 0.339-0.124 0.991-0.262 1.702 0.125 0.1 0.054 0.207 0.080 0.313 0.080 0.233 0 0.459-0.125 0.579-0.344 0.173-0.319 0.055-0.719-0.264-0.892zM5.234 8.789c0.13-0.726 0.292-1.63 0.503-2.404 0.215-0.787 0.399-1.125 0.499-1.263l0.527 0.478c-0.78 2.482-0.697 7.186-0.632 8.962h-0.546c-0.076-1.796-0.268-3.445-0.513-4.91 0.049-0.234 0.102-0.53 0.162-0.865zM1.433 4.395l0.766-0.675c0.050 0.162 0.109 0.35 0.184 0.565 0.626 1.819 1.676 5.509 1.885 10.278h-0.664c-0.293-1.821-1.254-7.544-2.171-10.168zM32.368 29.712c0 0.353-0.288 0.641-0.641 0.641h-29.771c-0.353 0-0.641-0.288-0.641-0.641v-2.665c0-0.353 0.288-0.641 0.641-0.641h29.771c0.353 0 0.641 0.288 0.641 0.641v2.665h0zM32.368 24.449c0 0.353-0.288 0.641-0.641 0.641h-29.771c-0.353 0-0.641-0.288-0.641-0.641v-2.665c0-0.353 0.288-0.641 0.641-0.641h29.771c0.353 0 0.641 0.288 0.641 0.641v2.665h0zM32.368 19.186c0 0.353-0.288 0.641-0.641 0.641h-29.771c-0.353 0-0.641-0.288-0.641-0.641v-2.665c0-0.353 0.288-0.641 0.641-0.641h29.768c0.001 0 0.001 0 0.002 0s0.001-0 0.001-0c0.353 0 0.64 0.288 0.64 0.641v2.665h0z"></path>
      <path fill="#89c0c0" style="fill: var(--color2, #89c0c0)" d="M24.301 11.925l0.007 0.004c0.103 0.059 0.216 0.088 0.328 0.088 0.228 0 0.449-0.118 0.571-0.33 0.181-0.315 0.073-0.717-0.242-0.898l-0.007-0.004c-0.315-0.181-0.717-0.073-0.898 0.242s-0.073 0.717 0.242 0.898z"></path>
      <path fill="#89c0c0" style="fill: var(--color2, #89c0c0)" d="M19.393 4.61c0.090 0 0.182-0.019 0.269-0.058l0.025-0.011c0.333-0.146 0.485-0.534 0.339-0.866s-0.534-0.485-0.866-0.339l-0.037 0.016c-0.331 0.149-0.479 0.538-0.33 0.87 0.11 0.244 0.349 0.388 0.6 0.388z"></path>
      <path fill="#89c0c0" style="fill: var(--color2, #89c0c0)" d="M4.013 17.195c-0.362 0-0.658 0.296-0.658 0.658s0.296 0.658 0.658 0.658 0.658-0.296 0.658-0.658c0-0.362-0.296-0.658-0.658-0.658z"></path>
      <path fill="#89c0c0" style="fill: var(--color2, #89c0c0)" d="M4.013 22.458c-0.362 0-0.658 0.296-0.658 0.658s0.296 0.658 0.658 0.658 0.658-0.296 0.658-0.658c0-0.362-0.296-0.658-0.658-0.658z"></path>
      <path fill="#89c0c0" style="fill: var(--color2, #89c0c0)" d="M4.013 27.721c-0.362 0-0.658 0.296-0.658 0.658s0.296 0.658 0.658 0.658 0.658-0.296 0.658-0.658c0-0.362-0.296-0.658-0.658-0.658z"></path>
      <path fill="#89c0c0" style="fill: var(--color2, #89c0c0)" d="M29.671 17.195c-0.362 0-0.658 0.296-0.658 0.658s0.296 0.658 0.658 0.658 0.658-0.296 0.658-0.658c0-0.362-0.296-0.658-0.658-0.658z"></path>
      <path fill="#89c0c0" style="fill: var(--color2, #89c0c0)" d="M29.671 22.458c-0.362 0-0.658 0.296-0.658 0.658s0.296 0.658 0.658 0.658 0.658-0.296 0.658-0.658c0-0.362-0.296-0.658-0.658-0.658z"></path>
      <path fill="#89c0c0" style="fill: var(--color2, #89c0c0)" d="M29.671 27.721c-0.362 0-0.658 0.296-0.658 0.658s0.296 0.658 0.658 0.658 0.658-0.296 0.658-0.658c0-0.362-0.296-0.658-0.658-0.658z"></path>
    </symbol>
    <symbol id="icon-Vector" viewBox="0 0 46 32">
      <path fill="#fff" style="fill: var(--color1, #fff)" d="M38.478 29.276c0 0.317 0.030 0.588 0 0.86-0.122 1.026-1.018 1.373-1.839 1.026-0.41-0.166-0.517-0.558-0.289-0.935s0.593-0.588 0.988-0.769c0.243-0.121 0.517-0.196 0.775-0.302-0.228-0.799-1.292-1.297-2.006-0.875-0.486 0.287-0.927 0.664-1.353 1.041-0.623 0.558-1.201 1.161-1.824 1.72-0.289 0.256-0.608 0.483-0.958 0.648-0.562 0.271-1.034 0.121-1.292-0.468-0.182-0.438-0.258-0.92-0.395-1.388-0.015-0.060-0.015-0.136-0.030-0.226-0.426 0.045-0.836 0.091-1.246 0.121-1.201 0.090-2.402 0.136-3.587-0.151-0.274-0.075-0.547-0.166-0.79-0.302-0.836-0.453-1.125-1.161-0.867-2.081 0.198-0.694 0.562-1.297 1.003-1.84 0.35-0.438 0.73-0.845 1.11-1.252 0.091-0.090 0.122-0.181 0.106-0.317-0.015-0.392-0.046-0.784-0.015-1.176 0.046-0.694 0.228-1.342 0.715-1.9-0.441-0.181-0.76-0.498-0.988-0.89-0.213-0.377-0.395-0.784-0.593-1.207-0.091 0.015-0.213 0.030-0.35 0.045-1.429 0.151-2.797-0.090-4.119-0.603-3.086-1.192-4.94-3.439-5.579-6.651-0.441-2.217-0.289-4.404 0.517-6.531 0.41-1.086 1.034-2.036 1.87-2.851 0.046-0.045 0.091-0.091 0.137-0.136 0.015-0.015 0.015-0.030 0.046-0.075-1.733-0.166-3.39 0.060-4.925 0.86-1.581 0.814-2.63 2.081-3.238 3.771 0.137-0.030 0.228-0.045 0.334-0.060 0.988-0.181 1.839 0.106 2.584 0.754 0.897 0.769 1.459 1.78 1.885 2.851 0.532 1.312 0.866 2.67 0.821 4.087-0.015 0.377-0.061 0.754-0.182 1.116-0.213 0.633-0.699 0.799-1.246 0.422-0.547-0.392-1.049-0.845-1.581-1.267-0.076-0.060-0.137-0.151-0.228-0.241 0 0.302 0.030 0.588 0 0.86-0.122 0.845-0.638 1.342-1.429 1.599-0.699 0.226-1.429 0.256-2.143 0.151-1.186-0.181-2.356-0.407-3.527-0.603-1.079-0.181-2.174-0.347-3.268-0.287-0.228 0.015-0.456 0.060-0.684 0.136-0.365 0.121-0.471 0.332-0.395 0.709 0.015 0.060 0.046 0.136 0.046 0.196 0 0.075-0.015 0.166-0.030 0.241-0.046-0.060-0.122-0.121-0.152-0.181-0.228-0.664 0.015-1.101 0.714-1.237 0.79-0.151 1.581-0.091 2.356 0.030 1.444 0.226 2.888 0.498 4.347 0.739 0.836 0.136 1.657 0.196 2.493-0.015 1.383-0.347 1.702-1.433 1.398-2.534-0.015-0.015 0-0.015 0 0-0.304 0.271-0.593 0.573-0.927 0.799-0.973 0.664-2.402 0.649-3.298 0.030-0.699-0.483-0.942-1.237-0.654-2.036 0.334-0.89 0.927-1.569 1.733-2.051 0.76-0.452 1.52-0.271 2.128 0.452 0.562 0.679 0.851 1.463 1.079 2.293 0.030 0.106 0.076 0.226 0.152 0.317 0.532 0.724 1.231 1.267 1.976 1.765 0.471 0.302 0.806 0.166 0.988-0.362 0.213-0.649 0.198-1.297 0.122-1.961-0.182-1.629-0.669-3.152-1.535-4.555-0.395-0.649-0.882-1.222-1.535-1.629-0.699-0.437-1.444-0.543-2.234-0.317-0.152 0.045-0.258 0.136-0.334 0.271-0.456 0.875-0.471 1.795-0.228 2.73 0.015 0.045 0.030 0.091 0.030 0.121 0 0.060 0 0.106 0 0.166-0.061 0-0.137 0.015-0.182 0-0.562-0.241-0.897-0.875-0.79-1.478 0.122-0.664 0.517-1.176 0.942-1.659 0.091-0.106 0.198-0.226 0.243-0.362 0.866-2.428 2.584-3.921 5.077-4.57 1.064-0.271 2.128-0.332 3.222-0.226 0.198 0.015 0.365-0.015 0.532-0.151 1.353-1.041 2.918-1.433 4.606-1.282 0.684 0.060 1.338 0.256 2.022 0.362 0.243 0.045 0.517 0 0.775-0.030 1.961-0.196 3.891-0.136 5.791 0.422s3.527 1.523 4.682 3.152c0.623 0.89 1.018 1.855 1.003 2.956 0 0.287-0.061 0.573-0.091 0.83 0.562 0.377 1.14 0.739 1.687 1.161 1.003 0.784 1.809 1.734 2.265 2.926 0.623 1.599 0.365 3.107-0.547 4.54-0.061 0.090-0.106 0.181-0.182 0.256-0.046 0.045-0.106 0.075-0.152 0.121-0.030-0.060-0.076-0.106-0.091-0.166-0.182-0.483-0.304-0.98-0.547-1.433-1.186-2.157-2.949-3.559-5.426-4.012-1.748-0.317-3.329 0.166-4.727 1.237-1.125 0.86-1.976 1.961-2.615 3.197-0.426 0.83-0.775 1.704-1.155 2.564-0.030 0.075-0.046 0.181-0.030 0.256 0.167 0.573 0.41 1.116 0.836 1.554 0.152 0.151 0.365 0.272 0.593 0.437 0-0.588-0.031-1.101 0-1.614 0.061-1.086 0.319-2.142 0.897-3.077 0.912-1.493 2.28-2.308 3.982-2.534 2.615-0.347 4.925 0.377 6.916 2.081 1.414 1.207 1.9 2.76 1.596 4.555-0.228 1.357-0.73 2.609-1.627 3.68-0.365 0.422-0.775 0.784-1.353 0.905-0.289 0.060-0.319 0.015-0.243-0.257 0.456-1.629 0.015-3.077-1.018-4.374-0.897-1.131-2.067-1.855-3.526-2.036-1.292-0.166-2.447 0.196-3.511 0.92-0.623 0.422-1.155 0.935-1.657 1.569 0.258-0.090 0.456-0.166 0.669-0.226 1.429-0.453 2.888-0.664 4.362-0.362 1.961 0.407 3.253 1.599 3.998 3.408 0.213 0.498 0.395 1.041 0.456 1.569 0.182 1.584-0.593 2.851-2.052 3.484-0.654 0.287-1.338 0.437-2.067 0.332-0.532-0.075-0.912-0.347-1.11-0.845-0.243-0.634-0.486-1.252-0.76-1.87-0.35-0.754-0.851-1.373-1.642-1.72-0.714-0.317-1.444-0.302-2.204-0.226-0.532 0.060-0.927 0.287-1.262 0.679-0.608 0.694-1.201 1.403-1.55 2.262-0.091 0.226-0.167 0.483-0.198 0.724-0.091 0.664 0.213 1.191 0.866 1.508 0.562 0.287 1.17 0.392 1.794 0.438 1.201 0.090 2.386 0 3.572-0.136 0.031 0 0.076-0.015 0.122-0.030 0-0.226-0.015-0.468 0-0.694 0.015-0.151 0.046-0.317 0.107-0.452 0.182-0.422 0.608-0.483 0.912-0.136 0.334 0.392 0.274 0.935-0.182 1.207-0.182 0.106-0.395 0.181-0.623 0.272 0.076 0.573 0.152 1.176 0.502 1.704 0.228 0.332 0.562 0.422 0.942 0.196 0.426-0.256 0.836-0.558 1.201-0.875 0.699-0.618 1.368-1.282 2.052-1.93 0.182-0.166 0.395-0.317 0.608-0.453 0.775-0.513 1.368-0.498 2.189 0.287 0.122 0.121 0.228 0.272 0.319 0.438 0.061 0.106 0.121 0.151 0.243 0.121 1.642-0.362 3.314-0.332 4.971-0.181 0.562 0.045 1.125 0.136 1.687 0.196 0.030 0 0.076 0 0.106 0.015 0.046 0.030 0.076 0.075 0.122 0.121-0.061 0.030-0.106 0.075-0.167 0.060-0.35-0.045-0.699-0.106-1.049-0.136-0.684-0.060-1.368-0.136-2.052-0.151-1.14-0.030-2.28-0.030-3.405 0.211-0.076 0.075-0.167 0.106-0.228 0.106zM17.835 15.747c0.015 0 0.046-0.015 0.061-0.015 0.091-1.87 0.395-3.71 0.851-5.52 0.502-1.961 1.14-3.876 2.158-5.656 0.517-0.905 1.11-1.734 1.961-2.368 0.091-0.075 0.213-0.091 0.319-0.151-0.030 0.121-0.030 0.241-0.076 0.332-0.699 1.569-1.429 3.122-2.098 4.706-0.73 1.734-1.322 3.529-1.474 5.415-0.076 0.83-0.030 1.659 0.289 2.443 0.304 0.739 0.836 1.252 1.52 1.629 0.38 0.211 0.684 0.106 0.882-0.271 0.076-0.151 0.167-0.317 0.198-0.498 0.122-0.558 0.213-1.131 0.319-1.704 0.213-1.191 0.38-2.383 0.638-3.559 0.38-1.674 1.231-3.047 2.766-3.982 1.687-1.041 3.496-1.523 5.487-1.237 1.763 0.256 3.283 1.026 4.636 2.172 0.121 0.106 0.243 0.211 0.38 0.332 0.015-0.060 0.030-0.106 0.046-0.136 0.152-0.724 0.061-1.418-0.182-2.096-0.517-1.342-1.444-2.383-2.645-3.182-1.763-1.176-3.77-1.629-5.867-1.719-1.064-0.045-2.128 0.091-3.192 0.151-1.429 0.075-2.675 0.558-3.815 1.357-2.538 1.78-3.739 4.298-3.982 7.33-0.106 1.418 0.030 2.805 0.319 4.193 0.152 0.679 0.334 1.357 0.502 2.036zM25.192 18.25c0.046-0.091 0.061-0.151 0.091-0.226 0.334-0.739 0.638-1.493 1.003-2.217 0.608-1.191 1.383-2.247 2.417-3.122 1.11-0.95 2.386-1.538 3.861-1.614 1.307-0.075 2.523 0.256 3.663 0.89 1.505 0.845 2.645 2.021 3.374 3.59 0.152 0.317 0.274 0.664 0.41 1.026 0.547-0.83 0.882-1.704 0.912-2.67 0.031-1.191-0.38-2.232-1.094-3.167-1.11-1.463-2.584-2.458-4.317-3.077-1.322-0.468-2.675-0.649-4.074-0.407-1.581 0.271-2.934 1.026-4.119 2.066-2.234 1.946-3.192 4.359-2.69 7.3 0.106 0.543 0.274 1.101 0.562 1.629zM37.185 24.389c0.091-0.030 0.213-0.075 0.334-0.121 0.395-0.181 0.699-0.483 0.958-0.814 0.942-1.191 1.444-2.564 1.566-4.072 0.091-1.222-0.198-2.353-1.079-3.258-2.128-2.202-4.742-3.047-7.752-2.473-1.672 0.317-2.903 1.297-3.633 2.851-0.562 1.207-0.684 2.489-0.608 3.801 0 0.015 0.015 0.015 0.030 0.015-0.030-0.030-0.061-0.060-0.091-0.091 0.426-0.377 0.851-0.754 1.292-1.131 1.018-0.86 2.174-1.418 3.526-1.433 1.642-0.015 2.979 0.648 4.074 1.825 0.927 0.995 1.49 2.187 1.49 3.559 0.015 0.452-0.061 0.89-0.106 1.342zM26.181 23.876c0.319-0.045 0.593-0.106 0.866-0.136 0.958-0.106 1.87-0.015 2.675 0.573 0.623 0.453 1.019 1.101 1.323 1.795 0.243 0.558 0.456 1.131 0.684 1.689 0.137 0.347 0.41 0.543 0.775 0.603 0.957 0.181 1.839-0.075 2.645-0.588 0.973-0.634 1.459-1.539 1.429-2.7-0.030-0.769-0.304-1.478-0.638-2.157-0.851-1.765-2.265-2.79-4.241-3.017-1.55-0.181-3.025 0.121-4.469 0.709-0.274 0.106-0.486 0.287-0.638 0.528-0.395 0.634-0.471 1.327-0.456 2.051 0 0.211 0.030 0.422 0.046 0.648zM25.056 18.462c-0.030-0.091-0.046-0.121-0.061-0.166-0.988-2.217-0.912-4.419 0.152-6.576 0.699-1.418 1.794-2.473 3.101-3.348 1.961-1.327 4.089-1.75 6.399-1.191 0.471 0.121 0.942 0.271 1.429 0.422-0.076-0.060-0.122-0.121-0.182-0.151-0.562-0.362-1.095-0.769-1.687-1.086-2.082-1.056-4.226-1.237-6.43-0.392-1.14 0.437-2.158 1.056-2.949 1.991-0.623 0.739-0.958 1.629-1.231 2.549-0.38 1.327-0.502 2.7-0.73 4.057-0.107 0.588-0.228 1.191-0.441 1.765s-0.684 0.709-1.216 0.407c-0.547-0.302-1.003-0.709-1.338-1.252-0.471-0.769-0.577-1.629-0.562-2.504 0.030-1.297 0.334-2.549 0.73-3.786 0.608-1.946 1.444-3.801 2.311-5.656 0.167-0.347 0.319-0.694 0.486-1.041-0.107 0.030-0.167 0.091-0.243 0.151-0.684 0.633-1.201 1.403-1.642 2.202-0.821 1.493-1.383 3.077-1.839 4.706-0.593 2.172-0.973 4.374-1.049 6.636 0 0.151 0.046 0.226 0.152 0.317 1.687 1.297 3.587 1.961 5.715 2.006 0.38 0.015 0.745-0.030 1.125-0.060zM24.083 0.649c0-0.015 0.015-0.045 0.015-0.060-0.593-0.075-1.201-0.166-1.794-0.196-1.368-0.060-2.645 0.256-3.8 1.026-1.383 0.935-2.295 2.232-2.858 3.771-0.73 2.036-0.836 4.133-0.426 6.244 0.334 1.734 1.094 3.258 2.356 4.525 0.030 0.030 0.076 0.060 0.152 0.121-0.030-0.091-0.030-0.151-0.046-0.196-0.41-1.312-0.714-2.639-0.851-4.012-0.182-1.81-0.061-3.605 0.562-5.324 0.958-2.594 2.691-4.464 5.305-5.505 0.456-0.166 0.927-0.256 1.383-0.392zM9.11 15.008c0.836-0.030 1.657-0.407 2.25-1.267 0.046-0.060 0.091-0.166 0.076-0.241-0.213-0.86-0.517-1.689-1.125-2.368-0.517-0.573-1.155-0.709-1.809-0.317-0.775 0.452-1.338 1.101-1.642 1.946-0.274 0.769 0 1.463 0.714 1.885 0.426 0.256 0.866 0.362 1.535 0.362zM38.189 29.291c-0.441 0.211-0.866 0.392-1.262 0.619-0.167 0.106-0.319 0.271-0.426 0.437-0.152 0.241-0.076 0.468 0.182 0.618 0.578 0.317 1.307 0.060 1.535-0.558 0.121-0.332 0.106-0.679-0.031-1.116zM30.376 29.336c0.030 0.015 0.061 0.030 0.091 0.060 0.182-0.090 0.365-0.151 0.532-0.256 0.319-0.211 0.35-0.603 0.091-0.89-0.213-0.241-0.486-0.196-0.578 0.106-0.076 0.317-0.091 0.648-0.137 0.98zM8.791 9.669c-0.167-0.769-0.198-1.508 0.030-2.277-0.699 0.83-0.806 1.78-0.030 2.277z"></path>
    </symbol>
    <symbol id="icon--" viewBox="0 0 35 32">
      <path fill="#fff" style="fill: var(--color1, #fff)" d="M34.909 1.455h-34.909v-1.455h34.909v1.455z"></path>
      <path fill="#fff" style="fill: var(--color1, #fff)" d="M29.091 17.455h-29.091v-1.455h29.091v1.455z"></path>
      <path fill="#fff" style="fill: var(--color1, #fff)" d="M21.818 32h-21.818v-1.455h21.818v1.455z"></path>
    </symbol>
  </defs>
</svg>
